<svg width="16" height="16" fill="#555" viewBox="0 0 512 512"><path d="M448 0H64C28.654 0 0 28.654 0 64v384c0 35.347 28.654 64 64 64h384c35.347 0 64-28.653 64-64V64c0-35.346-28.653-64-64-64zM301.684 455.974c-87.137 1.5-120.146-62.073-120.146-106.83V218.456h-40.486v-51.664c60.685-21.881 75.276-76.626 78.701-107.812.236-2.144 1.922-2.98 2.89-2.98h58.578v101.894h80.049v60.563h-80.326v124.527c.261 16.924 6.473 40.273 38.499 39.424 10.606-.269 24.83-3.354 32.265-6.899l19.242 57.026c-7.209 10.625-39.863 22.935-69.266 23.439z"/></svg>