<svg xmlns="http://www.w3.org/2000/svg" width="12.153" height="12.5" viewBox="1.923 1.75 12.153 12.5"><path d="M8.333 8.887l-.586-.456c-.179-.148-.423-.344-.423-.701 0-.359.244-.588.456-.799.683-.538 1.365-1.109 1.365-2.315 0-1.239-.78-1.892-1.154-2.201H9l1.057-.665H6.853c-.88 0-2.147.208-3.075.974-.7.604-1.041 1.436-1.041 2.185 0 1.271.977 2.56 2.7 2.56.163 0 .341-.016.52-.032-.081.195-.162.358-.162.635 0 .504.26.815.488 1.108-.732.051-2.1.131-3.107.75-.96.572-1.252 1.402-1.252 1.988 0 1.207 1.138 2.332 3.497 2.332 2.798 0 4.279-1.548 4.279-3.08-.001-1.127-.651-1.681-1.367-2.283zM6.202 7.012c-1.399 0-2.034-1.809-2.034-2.901 0-.425.081-.864.357-1.207a1.52 1.52 0 0 1 1.14-.538c1.349 0 2.049 1.826 2.049 3 0 .294-.032.814-.406 1.191-.262.26-.7.455-1.106.455zm.016 6.554c-1.74 0-2.863-.832-2.863-1.99 0-1.156 1.041-1.549 1.399-1.678.683-.23 1.561-.262 1.708-.262.163 0 .244 0 .374.016 1.237.881 1.774 1.32 1.774 2.154 0 1.008-.83 1.76-2.392 1.76zm6.223-6.579v-1.63h-.804v1.63h-1.628v.814h1.628v1.64h.804v-1.64h1.635v-.814z"/></svg>