<svg xmlns="http://www.w3.org/2000/svg" width="16" height="16" viewBox="0 0 1142.929 1142.928" fill="#555"><path d="M1047.684.001H95.245C42.86.001 0 42.86 0 95.245v952.438c0 52.387 42.86 95.244 95.244 95.244h952.439c52.383 0 95.244-42.857 95.244-95.244V95.245c.001-52.385-42.86-95.244-95.243-95.244zM345.259 881.007c-46.026 0-83.338-37.313-83.338-83.34 0-46.025 37.312-83.338 83.338-83.338 46.025 0 83.339 37.313 83.339 83.338 0 46.028-37.313 83.34-83.339 83.34zm226.204 0c0-171.439-138.105-309.543-309.543-309.543V469.077c228.585 0 411.93 183.344 411.93 411.93H571.463zm207.157 0c0-285.732-230.967-516.699-516.699-516.699V261.921c342.879 0 619.086 276.208 619.086 619.086H778.62z"/></svg>