<svg xmlns="http://www.w3.org/2000/svg" width="1190.55" height="1190.55" viewBox="0 97.797 1190.55 1190.55"><path d="M744.093 693.072L297.638 246.615v223.229H0v446.457h297.638v223.227z"/><path d="M1004.527 97.797H669.685c-41.074 0-74.411 33.335-74.411 74.409s33.336 74.409 74.411 74.409h334.842c20.164 0 37.205 17.04 37.205 37.205v818.503c0 20.165-17.041 37.205-37.205 37.205H669.685c-41.074 0-74.411 33.261-74.411 74.409s33.336 74.409 74.411 74.409h334.842c102.609 0 186.023-83.413 186.023-186.023V283.82c0-102.536-83.414-186.023-186.023-186.023z"/></svg>