<svg xmlns="http://www.w3.org/2000/svg" width="16" height="13.96" viewBox="257.15 535.317 16 13.96"><path d="M260.615 535.418c1.719-.395 3.492.395 4.535 1.943 1.042-1.549 2.816-2.338 4.535-1.943 2 .451 3.465 2.281 3.465 4.338 0 3.521-2.62 6.703-7.803 9.465-.057.027-.141.057-.197.057s-.141-.029-.197-.057c-5.184-2.762-7.803-5.943-7.803-9.465-.028-2.057 1.437-3.887 3.465-4.338zm-.732 2.732c.057-.057.141-.113.197-.17.084-.055.141-.084.225-.141a.962.962 0 0 1 .311-.111.422.422 0 0 0-.197-.819c-.169.057-.311.086-.451.17-.112.057-.225.113-.338.197-.112.084-.225.168-.31.254a3.169 3.169 0 0 0-.62 3.803.44.44 0 0 0 .367.225c.056 0 .141 0 .197-.057.196-.113.281-.365.168-.563-.507-.928-.31-2.055.451-2.788z"/></svg>