<svg xmlns="http://www.w3.org/2000/svg" width="16" height="16" fill="#555" viewBox="0 0 512 512"><path d="M448 0H64C28.654 0 0 28.654 0 64v384c0 35.347 28.653 64 64 64h384c35.346 0 64-28.653 64-64V64c0-35.346-28.654-64-64-64zm-32.94 174.422c.151 3.522.233 7.058.233 10.625 0 108.443-82.547 233.491-233.491 233.491-46.342 0-89.477-13.588-125.802-36.882a165.055 165.055 0 0 0 19.573 1.157c38.458 0 73.845-13.121 101.924-35.136-35.903-.663-66.214-24.393-76.653-56.989 5.006.947 10.142 1.477 15.438 1.477a82.612 82.612 0 0 0 21.614-2.876c-37.537-7.551-65.827-40.717-65.827-80.476 0-.346 0-.692.004-1.03a81.829 81.829 0 0 0 37.17 10.261c-22.021-14.717-36.505-39.831-36.505-68.303 0-15.049 4.046-29.142 11.111-41.263 40.477 49.659 100.939 82.322 169.147 85.753a82.352 82.352 0 0 1-2.129-18.704c0-45.319 36.747-82.066 82.072-82.066 23.596 0 44.932 9.962 59.893 25.914a164.342 164.342 0 0 0 52.12-19.908c-6.131 19.154-19.146 35.241-36.08 45.397 16.601-1.986 32.41-6.393 47.127-12.923H456h-.001a166.82 166.82 0 0 1-40.939 42.481z"/></svg>