<svg xmlns="http://www.w3.org/2000/svg" width="12.5" height="10.16" viewBox="0 0 12.5 10.16"><path d="M11.221 2.531c.006.11.008.221.008.332 0 3.389-2.58 7.297-7.296 7.297A7.273 7.273 0 0 1 .002 9.008c.201.023.405.035.612.035 1.202 0 2.308-.41 3.185-1.098a2.57 2.57 0 0 1-2.397-1.781 2.55 2.55 0 0 0 1.157-.043A2.568 2.568 0 0 1 .502 3.605v-.032c.346.192.742.308 1.162.321A2.564 2.564 0 0 1 .87.47a7.283 7.283 0 0 0 5.286 2.68A2.564 2.564 0 0 1 10.525.81a5.13 5.13 0 0 0 1.629-.622 2.568 2.568 0 0 1-1.127 1.418 5.126 5.126 0 0 0 1.473-.404 5.215 5.215 0 0 1-1.279 1.329z"/></svg>