<svg xmlns="http://www.w3.org/2000/svg" width="17" height="15" viewBox="206.645 54.434 428.609 367.357" fill="#555"><path d="M421.488 351.521l-66-37.719c-2.919-1.68-5.291-.299-5.291 3.072v84.787h-.009c0 22.363 11.91 26.773 26.468 9.801l45.932-53.566c1.833-2.129 1.333-4.99-1.1-6.375zM613.52 55.971l-389.946 129.98c-21.221 7.077-22.691 21.935-3.276 33.041l103.884 59.361c2.438 1.386 6.276 1.209 8.577-.4l206.509-144.439c11.506-8.039 12.43-6.891 2.067 2.581L366.512 295.854c-2.485 2.281-2.128 5.467.796 7.139l151.42 86.525c12.134 6.938 25.206 1.619 29.045-11.82L634.07 75.663c4.609-16.135-4.649-24.993-20.55-19.692z"/></svg>