<svg width="16" height="16" fill="#555" viewBox="0 0 512 512"><path d="M246.865 171.693c0-37.569-22.392-95.988-65.568-95.988-13.576 0-28.117 6.779-36.468 17.225-8.861 10.969-11.435 25.009-11.435 38.611 0 34.938 20.291 92.833 65.078 92.833 13.003 0 27.011-6.229 35.387-14.578 11.971-12.046 13.006-28.702 13.006-38.103z"/><path d="M448 0H64C28.654 0 0 28.654 0 64v384c0 35.347 28.654 64 64 64h384c35.347 0 64-28.653 64-64V64c0-35.346-28.653-64-64-64zM173.455 456.001c-75.491 0-111.902-35.978-111.902-74.604 0-18.769 9.353-45.354 40.067-63.623 32.259-19.826 76.015-22.419 99.449-24.034-7.318-9.38-15.624-19.292-15.624-35.447 0-8.859 2.605-14.078 5.182-20.346-5.735.533-11.43 1.045-16.644 1.045-55.157 0-86.398-41.241-86.398-81.923 0-23.967 10.913-50.591 33.297-69.895C150.575 62.66 191.131 56 219.273 56h102.562l-33.852 21.27h-32.254c11.962 9.904 36.921 30.768 36.921 70.435 0 38.578-21.83 56.88-43.684 74.081-6.778 6.766-14.594 14.075-14.594 25.57 0 11.447 7.816 17.701 13.528 22.439l18.76 14.568c22.911 19.299 43.728 37.03 43.713 73.063 0 49.042-47.389 98.575-136.918 98.575zm276.992-206.374h-52.329v52.476h-25.764v-52.476h-52.071V223.58h52.071v-52.16h25.764v52.16h52.329v26.047z"/><path d="M218.745 308.894c-4.142-.524-6.746-.524-11.951-.524-4.692 0-32.812 1.025-54.659 8.38-11.462 4.146-44.759 16.675-44.759 53.708 0 37.042 35.914 63.685 91.605 63.685 49.985 0 76.547-24.057 76.547-56.354 0-26.675-17.187-40.722-56.783-68.895z"/></svg>