<svg xmlns="http://www.w3.org/2000/svg" width="639.968" height="1098.878" viewBox="275.291 143.633 639.968 1098.878" fill="#555"><path d="M797.05 143.633H393.501c-65.017 0-118.21 53.194-118.21 118.21v862.458c0 65.017 53.193 118.21 118.21 118.21H797.05c65.016 0 118.209-53.193 118.209-118.21V261.843c0-65.016-53.193-118.21-118.209-118.21zM595.274 1218.056c-30.347 0-54.943-24.597-54.943-54.943 0-30.348 24.597-54.944 54.943-54.944 30.348 0 54.944 24.597 54.944 54.944s-24.595 54.943-54.944 54.943zm257.267-166.784c0 16.691-13.654 30.348-30.348 30.348H368.356c-16.691 0-30.348-13.656-30.348-30.348V334.871c0-16.691 13.656-30.348 30.348-30.348h453.836c16.693 0 30.348 13.656 30.348 30.348v716.401z"/></svg>