<svg xmlns="http://www.w3.org/2000/svg" width="15" height="15" viewBox="0 97.797 1190.55 1190.55" fill="#555"><path d="M595.274 97.797C266.514 97.797 0 364.31 0 693.072c0 328.761 266.514 595.274 595.274 595.274 328.762 0 595.276-266.514 595.276-595.274-.406-328.594-266.681-594.87-595.276-595.275zm-178.287 95.037a621.793 621.793 0 0 0-99.458 209.968H147.345a535.605 535.605 0 0 1 269.642-209.968zM122.296 455.109h184.182a1112.363 1112.363 0 0 0-26.522 211.44H64.832a529.703 529.703 0 0 1 55.254-211.44h2.21zM64.832 719.594h215.124a1091.77 1091.77 0 0 0 25.049 215.124H122.296a525.305 525.305 0 0 1-57.464-215.124zm88.407 268.168h165.026a606.353 606.353 0 0 0 97.984 206.283 534.127 534.127 0 0 1-263.01-206.283zm415.514 236.49l-48.624-4.421a420.676 420.676 0 0 1-147.346-231.332h195.97v235.753zm0-288.797H360.259A996.036 996.036 0 0 1 333 720.331h235.753v215.124zm0-268.169H333a1009.314 1009.314 0 0 1 26.522-211.44h209.23v211.44zm0-264.484H373.521a423.615 423.615 0 0 1 147.345-235.016c16.208 0 31.68-3.685 48.624-5.157l-.737 240.173zm556.965 264.484h-213.65a1113.174 1113.174 0 0 0-27.996-212.177h181.971a526.01 526.01 0 0 1 59.676 211.44v.737zm-86.197-264.484H874.494a623.245 623.245 0 0 0-98.721-209.23 536.326 536.326 0 0 1 263.748 209.23zM621.796 162.629c16.209 0 33.891 0 50.098 5.157A423.602 423.602 0 0 1 819.24 402.802H621.796V162.629zm0 294.69h210.705a1038.825 1038.825 0 0 1 26.521 211.44H621.796v-211.44zm0 264.484h237.227a1056.43 1056.43 0 0 1-27.26 215.125H621.796V721.803zm50.098 499.501c-16.207 0-33.152 3.684-50.098 5.157V987.762h195.232a422.132 422.132 0 0 1-145.135 231.332v2.21zm103.879-25.785a617.385 617.385 0 0 0 97.248-205.547h164.289a534.12 534.12 0 0 1-261.537 202.6v2.947zm294.691-257.854H884.072a1109.514 1109.514 0 0 0 25.049-215.124h213.65a525.287 525.287 0 0 1-54.518 212.177l2.211 2.947z"/></svg>