<svg width="16" height="16" fill="#555" viewBox="0 0 512 512"><path d="M448 0H64C28.654 0 0 28.654 0 64v384c0 35.347 28.654 64 64 64h384c35.347 0 64-28.653 64-64V64c0-35.346-28.653-64-64-64zM146.813 436.631h-85.76V178.668h85.76v257.963zm-42.881-293.203h-.555C74.588 143.428 56 123.606 56 98.854c0-25.283 19.171-44.573 48.513-44.573 29.323 0 47.38 19.29 47.935 44.573-.001 24.752-18.614 44.574-48.516 44.574zM456 436.631h-85.741V298.61c0-34.663-12.425-58.328-43.437-58.328-23.688 0-37.806 15.953-43.992 31.353-2.273 5.512-2.828 13.22-2.828 20.932v144.064h-85.737s1.137-233.766 0-257.963h85.738v36.524c11.409-17.572 31.786-42.59 77.276-42.59 56.415 0 98.721 36.86 98.721 116.098v147.931z"/></svg>