<svg xmlns="http://www.w3.org/2000/svg" width="15" height="15" viewBox="0 0 15 15"><path d="M7.5 0C3.358 0 0 3.357 0 7.5S3.358 15 7.5 15a7.499 7.499 0 1 0 0-15zM5.254 1.197A7.847 7.847 0 0 0 4 3.844H1.856a6.74 6.74 0 0 1 3.398-2.647zM1.541 4.502h2.32a14.06 14.06 0 0 0-.334 2.664H.817a6.662 6.662 0 0 1 .696-2.664h.028zM.817 7.834h2.71c.015.912.121 1.82.315 2.711H1.541a6.613 6.613 0 0 1-.724-2.711zm1.114 3.379H4.01a7.635 7.635 0 0 0 1.235 2.6 6.734 6.734 0 0 1-3.314-2.6zm5.235 2.978l-.613-.055a5.296 5.296 0 0 1-1.856-2.914h2.469v2.969zm0-3.636H4.539a12.573 12.573 0 0 1-.344-2.711h2.971v2.711zm0-3.379H4.195c.017-.898.129-1.791.334-2.664h2.636l.001 2.664zm0-3.332h-2.46A5.335 5.335 0 0 1 6.562.883c.204 0 .399-.047.613-.066l-.009 3.027zm7.018 3.332h-2.691a13.85 13.85 0 0 0-.354-2.674h2.293c.437.825.691 1.732.752 2.664v.01zm-1.086-3.332h-2.08a7.834 7.834 0 0 0-1.245-2.637 6.755 6.755 0 0 1 3.325 2.637zM7.834.816c.205 0 .428 0 .631.064a5.345 5.345 0 0 1 1.857 2.961H7.834V.816zm0 3.713h2.654c.203.875.313 1.768.335 2.664H7.834V4.529zm0 3.332h2.989a13.3 13.3 0 0 1-.345 2.711H7.834V7.861zm.631 6.294c-.203 0-.417.046-.631.065v-3.008h2.46a5.32 5.32 0 0 1-1.829 2.913v.03zm1.308-.325A7.825 7.825 0 0 0 11 11.24h2.068a6.718 6.718 0 0 1-3.295 2.553v.037zm3.713-3.248h-2.348c.192-.891.299-1.799.314-2.711h2.691a6.597 6.597 0 0 1-.688 2.674l.031.037z"/></svg>