<svg xmlns="http://www.w3.org/2000/svg" width="12.5" height="11.948" viewBox="1.75 1.696 12.5 11.948"><path d="M4.588 13.645h-2.68V5.583h2.68v8.062zm-1.34-9.163H3.23c-.899 0-1.48-.619-1.48-1.393 0-.79.599-1.393 1.516-1.393s1.48.603 1.498 1.393c0 .774-.582 1.393-1.516 1.393zm11.002 9.163h-2.68V9.332c0-1.083-.389-1.823-1.357-1.823-.74 0-1.182.499-1.375.98-.07.171-.088.413-.088.654v4.502H6.071s.036-7.305 0-8.061H8.75v1.141c.356-.549.993-1.331 2.415-1.331 1.763 0 3.085 1.151 3.085 3.627v4.624z"/></svg>