<svg version="1.1" xmlns="http://www.w3.org/2000/svg" xmlns:xlink="http://www.w3.org/1999/xlink" x="0px" y="0px"
	 width="676.25px" height="590.004px" viewBox="257.15 534.797 676.25 590.004"
	 enable-background="new 257.15 534.797 676.25 590.004" xml:space="preserve">
<path d="M403.604,539.051c72.623-16.667,147.629,16.668,191.679,82.148c44.05-65.48,119.055-98.815,191.679-82.148
	C871.491,558.099,933.4,635.485,933.4,722.395c0,148.819-110.722,283.351-329.783,400.025c-2.381,1.19-5.952,2.381-8.334,2.381
	c-2.381,0-5.953-1.19-8.334-2.381c-219.061-116.674-329.781-251.206-329.781-400.025
	C255.976,635.485,317.886,558.099,403.604,539.051z M372.65,654.534c2.382-2.381,5.952-4.762,8.334-7.143
	c3.571-2.382,5.952-3.572,9.524-5.953c3.571-2.381,8.334-3.571,13.096-4.763c9.524-2.381,15.477-11.905,13.096-21.43
	c-2.381-9.523-11.904-15.477-21.43-13.096c-7.143,2.381-13.096,3.571-19.049,7.144c-4.762,2.381-9.523,4.762-14.286,8.334
	c-4.763,3.571-9.524,7.144-13.097,10.715c-44.051,41.669-54.766,107.149-26.191,160.724c3.57,5.953,9.523,9.524,15.477,9.524
	c2.381,0,5.953,0,8.334-2.381c8.334-4.763,11.906-15.478,7.144-23.812C332.171,733.111,340.505,685.489,372.65,654.534z"/>
</svg>
