<svg version="1.1" id="Слой_1" xmlns="http://www.w3.org/2000/svg" xmlns:xlink="http://www.w3.org/1999/xlink" x="0px" y="0px"
	 width="952.441px" height="952.44px" viewBox="119.055 216.851 952.441 952.44"
	 enable-background="new 119.055 216.851 952.441 952.44" xml:space="preserve">
<path d="M1071.496,744.265V641.878c0-20.239-16.668-36.907-36.908-36.907h-52.383c-17.859,0-34.527-11.905-39.289-28.572
	c-4.762-15.478-11.906-30.955-19.049-46.432c-8.334-16.668-4.762-35.717,7.143-48.813l36.908-36.907
	c14.285-14.287,14.285-36.907,0-51.194l-72.623-72.623c-14.287-14.287-36.908-14.287-51.195,0l-36.906,36.907
	c-13.096,13.096-32.145,15.477-48.813,7.143c-14.287-7.143-29.764-14.286-46.432-19.049c-16.668-5.952-28.572-21.43-28.572-39.288
	v-52.384c0-20.239-16.668-36.907-36.908-36.907H544.081c-20.239,0-36.907,16.668-36.907,36.907v52.384
	c0,17.858-11.905,34.526-28.573,39.288c-15.477,4.763-30.954,11.906-46.431,19.049c-16.668,8.334-35.717,4.763-48.813-7.143
	l-36.907-36.907c-14.287-14.287-36.907-14.287-51.194,0l-72.624,72.623c-14.287,14.287-14.287,36.907,0,51.194l36.907,36.907
	c13.096,13.096,15.477,32.145,7.143,48.813c-7.143,14.286-14.287,29.764-19.049,46.432c-5.953,16.667-21.43,28.572-39.288,28.572
	h-52.384c-20.239,0-36.907,16.668-36.907,36.907v102.388c0,20.239,16.668,36.907,36.907,36.907h52.384
	c17.858,0,34.526,11.905,39.288,28.573c4.762,15.477,11.906,30.954,19.049,46.431c8.334,16.668,4.762,35.717-7.143,48.813
	l-36.907,36.906c-14.287,14.287-14.287,36.907,0,51.194l72.624,72.623c14.287,14.287,36.907,14.287,51.194,0l36.907-36.907
	c13.096-13.096,32.145-15.477,48.813-7.143c14.286,7.143,29.764,14.286,46.431,19.049c16.668,5.952,28.573,21.43,28.573,39.288
	v52.384c0,20.239,16.668,36.907,36.907,36.907h102.387c20.24,0,36.908-16.668,36.908-36.907v-52.384
	c0-17.858,11.904-34.526,28.572-39.288c15.477-4.763,30.955-11.906,46.432-19.049c16.668-8.334,35.717-4.763,48.813,7.143
	l36.906,36.907c14.287,14.287,36.908,14.287,51.195,0l72.623-72.623c14.285-14.287,14.285-36.907,0-51.194l-36.908-36.906
	c-13.096-13.097-15.477-32.146-7.143-48.813c7.143-14.286,14.287-29.764,19.049-46.431c5.953-16.668,21.43-28.573,39.289-28.573
	h52.383C1054.828,781.173,1071.496,764.505,1071.496,744.265z M595.274,883.559c-104.768,0-190.487-85.72-190.487-190.487
	c0-104.769,85.72-190.488,190.487-190.488c104.768,0,190.489,85.72,190.489,190.488C785.763,797.84,700.042,883.559,595.274,883.559
	z"/>
</svg>
