<?xml version="1.0" encoding="utf-8"?>
<!-- Generator: Adobe Illustrator 16.0.0, SVG Export Plug-In . SVG Version: 6.00 Build 0)  -->
<!DOCTYPE svg PUBLIC "-//W3C//DTD SVG 1.1//EN" "http://www.w3.org/Graphics/SVG/1.1/DTD/svg11.dtd">
<svg version="1.1"
	 id="Слой_1" xmlns:svg="http://www.w3.org/2000/svg" xmlns:rdf="http://www.w3.org/1999/02/22-rdf-syntax-ns#" xmlns:dc="http://purl.org/dc/elements/1.1/" xmlns:cc="http://creativecommons.org/ns#" xmlns:sodipodi="http://sodipodi.sourceforge.net/DTD/sodipodi-0.dtd" xmlns:inkscape="http://www.inkscape.org/namespaces/inkscape"
	 xmlns="http://www.w3.org/2000/svg" xmlns:xlink="http://www.w3.org/1999/xlink" x="0px" y="0px" width="1000.062px"
	 height="881.008px" viewBox="95.244 240.662 1000.062 881.008" enable-background="new 95.244 240.662 1000.062 881.008"
	 xml:space="preserve">
<g transform="translate(0,-952.36218)">
	<path d="M442.735,1193.024c-46.981,0-85.57,38.589-85.57,85.571v57.295h47.622v-57.295c0-21.293,16.655-37.949,37.948-37.949
		h305.079c21.293,0,37.949,16.656,37.949,37.949v57.295h47.621v-57.295c0-46.982-38.588-85.571-85.57-85.571H442.735z
		 M238.11,1359.702c-79.147,0-142.866,68.11-142.866,152.911v408.508c0,84.801,63.718,152.911,142.866,152.911h714.331
		c79.146,0,142.865-68.11,142.865-152.911v-408.508c0-84.801-63.719-152.911-142.865-152.911H238.11z M232.529,1526.378
		c0.372-0.009,0.744-0.009,1.116,0c0.372-0.009,0.744-0.009,1.116,0c0.372-0.009,0.744-0.009,1.116,0
		c0.744-0.035,1.488-0.035,2.232,0h714.331c13.15-0.186,23.961,10.324,24.146,23.475s-10.324,23.962-23.475,24.147
		c-0.225,0.003-0.449,0.003-0.672,0H238.11c-13.15,1.541-25.06-7.87-26.601-21.021S219.379,1527.919,232.529,1526.378z
		 M233.646,1693.055c0.372-0.009,0.744-0.009,1.116,0c0.372-0.009,0.744-0.009,1.116,0c0.744-0.034,1.488-0.034,2.232,0h714.331
		c13.15-0.186,23.961,10.324,24.146,23.475s-10.324,23.962-23.475,24.147c-0.225,0.003-0.449,0.003-0.672,0H238.11
		c-13.15,1.233-24.81-8.428-26.043-21.578S220.495,1694.289,233.646,1693.055z M234.762,1859.733c0.372-0.009,0.744-0.009,1.116,0
		c0.744-0.035,1.488-0.035,2.232,0h714.331c13.15-0.187,23.961,10.323,24.146,23.474s-10.324,23.962-23.475,24.147
		c-0.225,0.004-0.449,0.004-0.672,0H238.11c-13.15,0.925-24.561-8.986-25.485-22.137
		C211.7,1872.067,221.611,1860.657,234.762,1859.733z"/>
</g>
</svg>
