<?xml version="1.0" encoding="utf-8"?>
<!-- Generator: Adobe Illustrator 16.0.0, SVG Export Plug-In . SVG Version: 6.00 Build 0)  -->
<!DOCTYPE svg PUBLIC "-//W3C//DTD SVG 1.1//EN" "http://www.w3.org/Graphics/SVG/1.1/DTD/svg11.dtd">
<svg version="1.1" id="Слой_1" xmlns="http://www.w3.org/2000/svg" xmlns:xlink="http://www.w3.org/1999/xlink" x="0px" y="0px"
	 width="1131.023px" height="1130.427px" viewBox="29.764 127.858 1131.023 1130.427"
	 enable-background="new 29.764 127.858 1131.023 1130.427" xml:space="preserve">
<g>
	<path d="M758.38,856.177c13.096-30.955,20.24-64.29,20.24-97.626c0-21.43-2.383-44.05-8.334-65.479
		c-3.572-14.287-9.525-28.573-15.479-42.86c-11.904-23.811-27.383-47.622-47.621-66.671c-20.24-19.049-42.859-35.716-66.672-47.622
		L604.8,571.635c-20.241,20.239-27.383,50.003-21.431,76.195c13.097,5.953,25.001,14.286,35.716,25.002
		c10.715,10.715,19.049,22.62,25.002,35.716c5.953,14.287,9.525,28.573,10.715,44.051c2.381,34.525-9.523,69.052-35.717,95.244
		l-254.777,250.015c-23.812,23.812-55.956,35.717-86.911,35.717c-30.954,0-63.099-11.905-86.91-35.717
		c-47.622-47.621-47.622-126.198,0-173.819l196.441-196.441c-19.049-52.384-22.62-109.53-9.524-164.296
		c-8.334,5.953-15.478,13.097-23.811,20.239L102.387,834.747c-48.813,48.813-72.624,111.912-72.624,176.201
		c0,63.1,23.811,127.39,72.624,175.012c96.435,96.434,253.587,96.434,351.212,0l252.396-252.397
		c7.145-7.143,14.287-15.477,20.24-23.811C739.332,893.084,750.046,875.226,758.38,856.177z"/>
	<path d="M1160.787,375.195c0-63.1-23.811-127.39-72.623-175.011c-96.436-96.435-253.588-96.435-351.213,0L484.554,452.581
		c-7.144,7.144-14.286,15.477-20.239,23.811c-13.096,16.668-23.812,34.526-32.145,53.575
		c-13.097,30.954-20.239,64.289-20.239,97.625c0,21.43,2.381,44.05,8.333,65.48c3.572,14.286,9.524,28.573,15.478,42.859
		c11.905,23.812,27.383,47.622,47.622,66.671c20.239,20.239,42.859,35.717,66.671,47.622l35.717-35.717
		c20.239-20.239,27.381-50.003,21.43-76.195c-13.097-5.952-25.002-14.286-35.717-25.001s-19.049-22.621-25.002-35.717
		c-5.952-14.286-9.523-28.573-10.715-44.051c-2.381-34.525,9.524-69.052,35.717-95.243l254.778-250.016
		c23.811-23.812,55.955-35.717,86.91-35.717s63.1,11.905,86.91,35.717c47.621,47.622,47.621,126.198,0,173.82L802.431,659.736
		c19.049,52.385,22.619,109.531,9.523,164.296c8.334-5.952,15.479-13.096,23.811-20.239l252.398-252.396
		C1136.976,502.584,1160.787,439.484,1160.787,375.195z"/>
</g>
</svg>
