<?xml version="1.0" encoding="utf-8"?>
<!-- Generator: Adobe Illustrator 16.0.0, SVG Export Plug-In . SVG Version: 6.00 Build 0)  -->
<!DOCTYPE svg PUBLIC "-//W3C//DTD SVG 1.1//EN" "http://www.w3.org/Graphics/SVG/1.1/DTD/svg11.dtd">
<svg version="1.1" id="Слой_1" xmlns="http://www.w3.org/2000/svg" xmlns:xlink="http://www.w3.org/1999/xlink" x="0px" y="0px"
	 width="1071.496px" height="916.735px" viewBox="59.527 234.698 1071.496 916.735"
	 enable-background="new 59.527 234.698 1071.496 916.735" xml:space="preserve">
<circle cx="595.274" cy="734.741" r="166.677"/>
<path d="M988.156,401.386h-38.191h-23.633c-31.443,0-65.85-24.203-76.494-53.789l-21.238-59.11
	c-10.656-29.573-45.063-53.789-76.492-53.789H438.443c-31.418,0-65.849,24.204-76.48,53.789l-21.251,59.11
	c-10.644,29.573-45.051,53.789-76.481,53.789h-23.644h-38.193c-78.576,0-142.866,64.267-142.866,142.866v464.314
	c0,78.576,64.29,142.866,142.866,142.866h785.762c78.576,0,142.867-64.29,142.867-142.866V544.253
	C1131.023,465.653,1066.732,401.386,988.156,401.386z M595.274,1020.472c-157.818,0-285.731-127.877-285.731-285.731
	c0-157.855,127.913-285.732,285.731-285.732c157.844,0,285.733,127.877,285.733,285.732
	C881.007,892.595,753.119,1020.472,595.274,1020.472z M982.205,588.898c-24.645,0-44.646-19.989-44.646-44.646
	c0-24.668,20.002-44.646,44.646-44.646c24.643,0,44.645,19.978,44.645,44.646C1026.849,568.909,1006.847,588.898,982.205,588.898z"
	/>
</svg>
