<?xml version="1.0" encoding="utf-8"?>
<!-- Generator: Adobe Illustrator 16.0.0, SVG Export Plug-In . SVG Version: 6.00 Build 0)  -->
<!DOCTYPE svg PUBLIC "-//W3C//DTD SVG 1.1//EN" "http://www.w3.org/Graphics/SVG/1.1/DTD/svg11.dtd">
<svg version="1.1"
	 id="Слой_1" xmlns:svg="http://www.w3.org/2000/svg" xmlns:rdf="http://www.w3.org/1999/02/22-rdf-syntax-ns#" xmlns:dc="http://purl.org/dc/elements/1.1/" xmlns:cc="http://creativecommons.org/ns#" xmlns:sodipodi="http://sodipodi.sourceforge.net/DTD/sodipodi-0.dtd" xmlns:inkscape="http://www.inkscape.org/namespaces/inkscape"
	 xmlns="http://www.w3.org/2000/svg" xmlns:xlink="http://www.w3.org/1999/xlink" x="0px" y="0px" width="1047.684px"
	 height="785.763px" viewBox="71.433 300.19 1047.684 785.763" enable-background="new 71.433 300.19 1047.684 785.763"
	 xml:space="preserve">
<g transform="translate(0,-952.36218)">
	<g transform="translate(2.8917323,955.35527)">
		<path d="M139.973,297.197c0,252.03,0,495.28,0,714.33c342.853,0,679.575,0,976.225,0c0-39.189,0-78.378,0-117.567
			c0.037-0.737,0.037-1.487,0-2.231c0-198.177,0-396.354,0-594.531C777.366,297.197,430.432,297.197,139.973,297.197z
			 M187.593,344.819h880.985v480.313c-75.566-93.474-150.945-187.1-226.572-280.524c-55.898,71.788-111.172,144.064-166.672,216.16
			c-90.836-99.362-183.448-197.107-273.82-296.894c-71.319,81.964-142.616,163.947-213.921,245.923V344.819z M68.541,392.441
			c0,230.173,0,460.346,0,690.519c317.472,0,634.943,0,952.416,0v-47.622H116.162V392.441H68.541z M759.043,404.346
			c-39.17,0-71.432,32.264-71.432,71.433c0,39.171,32.262,71.434,71.432,71.434c39.168,0,71.43-32.263,71.43-71.434
			C830.473,436.61,798.211,404.346,759.043,404.346z"/>
	</g>
</g>
</svg>
