<svg version="1.1"xmlns="http://www.w3.org/2000/svg" xmlns:xlink="http://www.w3.org/1999/xlink" x="0px" y="0px"
	 width="888.597px" height="733.12px" viewBox="151.004 326.414 888.597 733.12"
	 enable-background="new 151.004 326.414 888.597 733.12" xml:space="preserve">
<g>
	<path d="M162.629,625.33l850.529-298.114c0.834-0.238,1.668-0.477,2.5-0.596c7.857-0.833,45.004-1.904,7.381,57.385
		c-41.906,66.195-297.16,526.224-297.16,526.224s-35.359,65.361-96.436,26.787c-31.668-20.001-63.336-40.002-96.196-57.741
		l-111.792-60.123c-6.905-3.69-7.739-13.453-1.548-18.216l510.627-394.786L309.9,749.027c-3.334,1.786-7.382,1.786-10.597,0
		l-134.413-75.48c-1.071-0.596-1.905-1.31-2.738-2.143c-4.762-5.238-20.001-24.645-4.048-42.979
		C159.295,626.996,160.962,625.925,162.629,625.33z"/>
	<path d="M377.881,852.01l133.222,68.575c6.787,3.453,7.978,12.62,2.382,17.739L384.31,1056.666
		c-6.905,6.31-18.097,1.548-18.335-7.857l-4.048-186.917C361.808,853.677,370.499,848.2,377.881,852.01z"/>
</g>
</svg>
