<svg xmlns="http://www.w3.org/2000/svg" xmlns:xlink="http://www.w3.org/1999/xlink" version="1.1" x="0px" y="0px" viewBox="0 0 100 125" style="enable-background:new 0 0 100 100;" xml:space="preserve"><path d="M90,54.3v-8.6c0-1.7-1.4-3.1-3.1-3.1h-4.4c-1.5,0-2.9-1-3.3-2.4c-0.4-1.3-1-2.6-1.6-3.9c-0.7-1.4-0.4-3,0.6-4.1l3.1-3.1  c1.2-1.2,1.2-3.1,0-4.3l-6.1-6.1c-1.2-1.2-3.1-1.2-4.3,0l-3.1,3.1c-1.1,1.1-2.7,1.3-4.1,0.6c-1.2-0.6-2.5-1.2-3.9-1.6  c-1.4-0.5-2.4-1.8-2.4-3.3v-4.4c0-1.7-1.4-3.1-3.1-3.1h-8.6c-1.7,0-3.1,1.4-3.1,3.1v4.4c0,1.5-1,2.9-2.4,3.3c-1.3,0.4-2.6,1-3.9,1.6  c-1.4,0.7-3,0.4-4.1-0.6l-3.1-3.1c-1.2-1.2-3.1-1.2-4.3,0l-6.1,6.1c-1.2,1.2-1.2,3.1,0,4.3l3.1,3.1c1.1,1.1,1.3,2.7,0.6,4.1  c-0.6,1.2-1.2,2.5-1.6,3.9c-0.5,1.4-1.8,2.4-3.3,2.4h-4.4c-1.7,0-3.1,1.4-3.1,3.1v8.6c0,1.7,1.4,3.1,3.1,3.1h4.4  c1.5,0,2.9,1,3.3,2.4c0.4,1.3,1,2.6,1.6,3.9c0.7,1.4,0.4,3-0.6,4.1l-3.1,3.1c-1.2,1.2-1.2,3.1,0,4.3l6.1,6.1c1.2,1.2,3.1,1.2,4.3,0  l3.1-3.1c1.1-1.1,2.7-1.3,4.1-0.6c1.2,0.6,2.5,1.2,3.9,1.6c1.4,0.5,2.4,1.8,2.4,3.3v4.4c0,1.7,1.4,3.1,3.1,3.1h8.6  c1.7,0,3.1-1.4,3.1-3.1v-4.4c0-1.5,1-2.9,2.4-3.3c1.3-0.4,2.6-1,3.9-1.6c1.4-0.7,3-0.4,4.1,0.6l3.1,3.1c1.2,1.2,3.1,1.2,4.3,0  l6.1-6.1c1.2-1.2,1.2-3.1,0-4.3l-3.1-3.1c-1.1-1.1-1.3-2.7-0.6-4.1c0.6-1.2,1.2-2.5,1.6-3.9c0.5-1.4,1.8-2.4,3.3-2.4h4.4  C88.6,57.4,90,56,90,54.3z M50,66c-8.8,0-16-7.2-16-16c0-8.8,7.2-16,16-16s16,7.2,16,16C66,58.8,58.8,66,50,66z"/><text x="0" y="115" fill="#000000" font-size="5px" font-weight="bold" font-family="'Helvetica Neue', Helvetica, Arial-Unicode, Arial, Sans-serif">Created by Musmellow</text><text x="0" y="120" fill="#000000" font-size="5px" font-weight="bold" font-family="'Helvetica Neue', Helvetica, Arial-Unicode, Arial, Sans-serif">from the Noun Project</text></svg>