<?xml version="1.0" encoding="utf-8"?>
<!-- Generator: Adobe Illustrator 16.0.0, SVG Export Plug-In . SVG Version: 6.00 Build 0)  -->
<!DOCTYPE svg PUBLIC "-//W3C//DTD SVG 1.1//EN" "http://www.w3.org/Graphics/SVG/1.1/DTD/svg11.dtd">
<svg version="1.1" id="Слой_1" xmlns="http://www.w3.org/2000/svg" xmlns:xlink="http://www.w3.org/1999/xlink" x="0px" y="0px"
	 width="1190.55px" height="1190.55px" viewBox="0 97.797 1190.55 1190.55" enable-background="new 0 97.797 1190.55 1190.55"
	 xml:space="preserve">
<g>
	<polygon points="744.093,693.072 297.638,246.615 297.638,469.844 0,469.844 0,916.301 297.638,916.301 297.638,1139.528 	"/>
	<path d="M1004.527,97.797H669.685c-41.074,0-74.411,33.335-74.411,74.409s33.336,74.409,74.411,74.409h334.842
		c20.164,0,37.205,17.04,37.205,37.205v818.503c0,20.165-17.041,37.205-37.205,37.205H669.685
		c-41.074,0-74.411,33.261-74.411,74.409s33.336,74.409,74.411,74.409h334.842c102.609,0,186.023-83.413,186.023-186.023V283.82
		C1190.55,181.284,1107.136,97.797,1004.527,97.797z"/>
</g>
</svg>
