<svg xmlns:dc="http://purl.org/dc/elements/1.1/" xmlns:cc="http://creativecommons.org/ns#" xmlns:rdf="http://www.w3.org/1999/02/22-rdf-syntax-ns#" xmlns:svg="http://www.w3.org/2000/svg" xmlns="http://www.w3.org/2000/svg" xmlns:sodipodi="http://sodipodi.sourceforge.net/DTD/sodipodi-0.dtd" xmlns:inkscape="http://www.inkscape.org/namespaces/inkscape" version="1.1" x="0px" y="0px" viewBox="0 0 100 125"><g transform="translate(0,-952.36218)"><path style="opacity:1;color:#000000;fill:#000000;stroke:none;stroke-width:4;stroke-linecap:round;stroke-linejoin:round;stroke-miterlimit:4;stroke-opacity:1;stroke-dasharray:none;stroke-dashoffset:0;marker:none;visibility:visible;display:inline;overflow:visible;enable-background:accumulate" d="M 37.1875 12 C 33.241264 12 30 15.24126 30 19.1875 L 30 24 L 34 24 L 34 19.1875 C 34 17.39898 35.39898 16 37.1875 16 L 62.8125 16 C 64.60102 16 66 17.39898 66 19.1875 L 66 24 L 70 24 L 70 19.1875 C 70 15.24126 66.758736 12 62.8125 12 L 37.1875 12 z M 20 26 C 13.352002 26 8 31.720895 8 38.84375 L 8 73.15625 C 8 80.279105 13.352002 86 20 86 L 80 86 C 86.647998 86 92 80.279105 92 73.15625 L 92 38.84375 C 92 31.720895 86.647998 26 80 26 L 20 26 z M 19.53125 40 A 2.0087698 2.0087698 0 0 1 19.625 40 A 2.0049378 2.0049378 0 0 1 19.71875 40 A 2.0021961 2.0021961 0 0 1 19.8125 40 A 2.0001998 2.0001998 0 0 1 20 40 L 80 40 A 2.0001998 2.0001998 0 1 1 80 44 L 20 44 A 2.0087698 2.0087698 0 0 1 19.53125 40 z M 19.625 54 A 2.0049378 2.0049378 0 0 1 19.71875 54 A 2.0021961 2.0021961 0 0 1 19.8125 54 A 2.0001998 2.0001998 0 0 1 20 54 L 80 54 A 2.0001998 2.0001998 0 1 1 80 58 L 20 58 A 2.0049378 2.0049378 0 0 1 19.625 54 z M 19.71875 68 A 2.0021961 2.0021961 0 0 1 19.8125 68 A 2.0001998 2.0001998 0 0 1 20 68 L 80 68 A 2.0001998 2.0001998 0 1 1 80 72 L 20 72 A 2.0021961 2.0021961 0 0 1 19.71875 68 z " transform="translate(0,952.36218)"/></g><text x="0" y="115" fill="#000000" font-size="5px" font-weight="bold" font-family="'Helvetica Neue', Helvetica, Arial-Unicode, Arial, Sans-serif">Created by iconsphere</text><text x="0" y="120" fill="#000000" font-size="5px" font-weight="bold" font-family="'Helvetica Neue', Helvetica, Arial-Unicode, Arial, Sans-serif">from the Noun Project</text></svg>