<?xml version="1.0" encoding="utf-8"?>
<!-- Generator: Adobe Illustrator 16.0.0, SVG Export Plug-In . SVG Version: 6.00 Build 0)  -->
<!DOCTYPE svg PUBLIC "-//W3C//DTD SVG 1.1//EN" "http://www.w3.org/Graphics/SVG/1.1/DTD/svg11.dtd">
<svg version="1.1"
	 id="Слой_1" xmlns:svg="http://www.w3.org/2000/svg" xmlns:rdf="http://www.w3.org/1999/02/22-rdf-syntax-ns#" xmlns:dc="http://purl.org/dc/elements/1.1/" xmlns:cc="http://creativecommons.org/ns#" xmlns:sodipodi="http://sodipodi.sourceforge.net/DTD/sodipodi-0.dtd" xmlns:inkscape="http://www.inkscape.org/namespaces/inkscape"
	 xmlns="http://www.w3.org/2000/svg" xmlns:xlink="http://www.w3.org/1999/xlink" x="0px" y="0px" width="1011.98px"
	 height="1011.98px" viewBox="89.285 187.081 1011.98 1011.98" enable-background="new 89.285 187.081 1011.98 1011.98"
	 xml:space="preserve">
<g transform="translate(0,-952.36216)">
	<path d="M493.497,1139.45c-8.691-0.119-19.161,1.26-32.508,4.837c-71.181,19.072-40.309,51.376-104.127,88.221
		c-63.818,36.847-76.341-6.043-128.449,46.064c-52.107,52.106-9.218,64.631-46.064,128.449
		c-36.846,63.819-69.149,32.947-88.222,104.127c-19.073,71.181,24.346,60.594,24.346,134.285c0,73.691-43.418,63.105-24.346,134.286
		c19.073,71.18,51.376,40.309,88.222,104.127c36.846,63.817-6.043,76.342,46.064,128.449s64.63,9.217,128.449,46.063
		c63.818,36.846,32.946,69.149,104.127,88.222s60.595-24.346,134.285-24.346c73.692,0,63.106,43.418,134.286,24.346
		c71.182-19.072,40.309-51.376,104.127-88.222c63.818-36.847,76.342,6.044,128.449-46.063s9.219-64.632,46.064-128.449
		c36.846-63.82,69.148-32.947,88.221-104.127c19.074-71.181-24.346-60.595-24.346-134.286s43.42-63.104,24.346-134.285
		c-19.072-71.18-51.375-40.308-88.221-104.127c-36.846-63.818,6.043-76.343-46.064-128.449
		c-52.107-52.107-64.631-9.218-128.449-46.064c-63.818-36.845-32.945-69.148-104.127-88.221
		c-71.18-19.073-60.594,24.346-134.286,24.346C535.401,1168.632,531.159,1139.964,493.497,1139.45z M595.274,1242.577
		c222.297,0,402.858,180.561,402.858,402.856s-180.561,402.857-402.858,402.857c-222.295,0-402.856-180.562-402.856-402.857
		S372.979,1242.577,595.274,1242.577z M595.274,1274.595c-204.993,0-370.837,165.844-370.837,370.838
		s165.844,370.838,370.837,370.838c204.995,0,370.838-165.844,370.838-370.838S800.269,1274.595,595.274,1274.595z
		 M595.274,1373.932c41.542,0,62.917,119.263,96.524,143.68c33.607,24.418,153.631,7.882,166.467,47.39
		c12.838,39.509-93.963,96.707-106.801,136.216c-12.836,39.507,39.957,148.538,6.348,172.955
		c-33.607,24.417-120.996-59.48-162.538-59.48c-41.541,0-128.93,83.897-162.537,59.48c-33.608-24.417,19.185-133.448,6.348-172.955
		c-12.837-39.509-119.638-96.708-106.801-136.216s132.86-22.972,166.468-47.39C532.359,1493.195,553.733,1373.932,595.274,1373.932z
		"/>
</g>
</svg>
