<svg xmlns="http://www.w3.org/2000/svg" xmlns:xlink="http://www.w3.org/1999/xlink" version="1.1" x="0px" y="0px" viewBox="0 0 100 125" enable-background="new 0 0 100 100" xml:space="preserve"><g display="none"><path display="inline" d="M94.936,32.25l-22.879,8.623v-7.869c0-4.341-3.532-7.873-7.871-7.873H12.937   c-4.339,0-7.872,3.532-7.872,7.873v33.992c0,4.342,3.533,7.873,7.872,7.873h51.249c4.339,0,7.871-3.531,7.871-7.873v-7.629   l22.879,8.357V32.25z M68.908,66.996c0,2.605-2.121,4.723-4.723,4.723H12.937c-2.604,0-4.723-2.117-4.723-4.723V33.004   c0-2.605,2.118-4.724,4.723-4.724h51.249c2.602,0,4.723,2.118,4.723,4.724V66.996z M91.787,63.223L72.22,56.076V44.174   l19.567-7.372V63.223z"/></g><g><path d="M69.004,6.084H30.995c-2.836,0-5.136,2.3-5.136,5.137v77.56c0,2.836,2.3,5.136,5.136,5.136h38.009   c2.838,0,5.137-2.3,5.137-5.136v-77.56C74.141,8.384,71.842,6.084,69.004,6.084z M43.237,9.68h13.526   c0.377,0,0.686,0.307,0.686,0.685c0,0.379-0.309,0.686-0.686,0.686H43.237c-0.379,0-0.685-0.307-0.685-0.686   C42.553,9.986,42.858,9.68,43.237,9.68z M50.001,91.277c-1.771,0-3.205-1.435-3.205-3.204c0-1.771,1.435-3.207,3.205-3.207   c1.769,0,3.204,1.436,3.204,3.207C53.205,89.843,51.77,91.277,50.001,91.277z M70.031,78.851c0,1.891-1.533,3.423-3.424,3.423   H33.392c-1.891,0-3.423-1.532-3.423-3.423V17.897c0-1.891,1.532-3.424,3.423-3.424h33.216c1.891,0,3.424,1.533,3.424,3.424V78.851z   "/></g><text x="0" y="115" fill="#000000" font-size="5px" font-weight="bold" font-family="'Helvetica Neue', Helvetica, Arial-Unicode, Arial, Sans-serif">Created by Franc</text><text x="0" y="120" fill="#000000" font-size="5px" font-weight="bold" font-family="'Helvetica Neue', Helvetica, Arial-Unicode, Arial, Sans-serif">from the Noun Project</text></svg>