<?xml version="1.0" encoding="utf-8"?>
<!-- Generator: Adobe Illustrator 16.0.0, SVG Export Plug-In . SVG Version: 6.00 Build 0)  -->
<!DOCTYPE svg PUBLIC "-//W3C//DTD SVG 1.1//EN" "http://www.w3.org/Graphics/SVG/1.1/DTD/svg11.dtd">
<svg version="1.1" id="Слой_1" xmlns="http://www.w3.org/2000/svg" xmlns:xlink="http://www.w3.org/1999/xlink" x="0px" y="0px"
	 width="639.968px" height="1098.878px" viewBox="275.291 143.634 639.968 1098.878"
	 enable-background="new 275.291 143.634 639.968 1098.878" xml:space="preserve">
<path d="M797.05,143.634H393.501c-65.018,0-118.21,53.193-118.21,118.21v862.458c0,65.017,53.193,118.21,118.21,118.21H797.05
	c65.016,0,118.209-53.193,118.209-118.21V261.844C915.259,196.827,862.066,143.634,797.05,143.634z M595.275,1218.056
	c-30.348,0-54.943-24.598-54.943-54.943c0-30.348,24.596-54.943,54.943-54.943s54.943,24.597,54.943,54.943
	C650.218,1193.461,625.623,1218.056,595.275,1218.056z M852.541,1051.272c0,16.691-13.654,30.348-30.348,30.348H368.357
	c-16.691,0-30.35-13.655-30.35-30.348V334.871c0-16.69,13.656-30.348,30.35-30.348h453.836c16.691,0,30.348,13.656,30.348,30.348
	V1051.272L852.541,1051.272z"/>
</svg>
