<svg version="1.1" id="Layer_1" xmlns="http://www.w3.org/2000/svg" xmlns:xlink="http://www.w3.org/1999/xlink" x="0px" y="0px"
	 width="12.153px" height="12.5px" viewBox="1.923 1.75 12.153 12.5" enable-background="new 1.923 1.75 12.153 12.5"
	 xml:space="preserve">
<g>
	<path d="M8.333,8.887L7.747,8.431C7.568,8.283,7.324,8.087,7.324,7.73c0-0.359,0.244-0.588,0.456-0.799
		c0.683-0.538,1.365-1.109,1.365-2.315c0-1.239-0.78-1.892-1.154-2.201H9l1.057-0.665H6.853c-0.88,0-2.147,0.208-3.075,0.974
		C3.078,3.328,2.737,4.16,2.737,4.909c0,1.271,0.977,2.56,2.7,2.56c0.163,0,0.341-0.016,0.52-0.032
		C5.876,7.632,5.795,7.795,5.795,8.072c0,0.504,0.26,0.815,0.488,1.108c-0.732,0.051-2.1,0.131-3.107,0.75
		c-0.96,0.572-1.252,1.402-1.252,1.988c0,1.207,1.138,2.332,3.497,2.332c2.798,0,4.279-1.548,4.279-3.08
		C9.699,10.043,9.049,9.489,8.333,8.887z M6.202,7.012c-1.399,0-2.034-1.809-2.034-2.901c0-0.425,0.081-0.864,0.357-1.207
		c0.261-0.326,0.715-0.538,1.14-0.538c1.349,0,2.049,1.826,2.049,3c0,0.294-0.032,0.814-0.406,1.191
		C7.046,6.817,6.608,7.012,6.202,7.012z M6.218,13.566c-1.74,0-2.863-0.832-2.863-1.99c0-1.156,1.041-1.549,1.399-1.678
		c0.683-0.23,1.561-0.262,1.708-0.262c0.163,0,0.244,0,0.374,0.016c1.237,0.881,1.774,1.32,1.774,2.154
		C8.61,12.814,7.78,13.566,6.218,13.566z"/>
	<polygon points="12.441,6.987 12.441,5.357 11.637,5.357 11.637,6.987 10.009,6.987 10.009,7.801 11.637,7.801 11.637,9.441
		12.441,9.441 12.441,7.801 14.076,7.801 14.076,6.987 	"/>
</g>
</svg>
