<svg version="1.1" id="Слой_1" xmlns="http://www.w3.org/2000/svg" xmlns:xlink="http://www.w3.org/1999/xlink" x="0px" y="0px"
	 width="639.968px" height="1098.878px" viewBox="275.291 143.633 639.968 1098.878" fill="#555"
	 enable-background="new 275.291 143.633 639.968 1098.878" xml:space="preserve">
<path d="M797.05,143.633H393.501c-65.017,0-118.21,53.194-118.21,118.21v862.458c0,65.017,53.193,118.21,118.21,118.21H797.05
	c65.016,0,118.209-53.193,118.209-118.21V261.843C915.259,196.827,862.066,143.633,797.05,143.633z M595.274,1218.056
	c-30.347,0-54.943-24.597-54.943-54.943c0-30.348,24.597-54.944,54.943-54.944c30.348,0,54.944,24.597,54.944,54.944
	C650.218,1193.46,625.623,1218.056,595.274,1218.056z M852.541,1051.272c0,16.691-13.654,30.348-30.348,30.348H368.356
	c-16.691,0-30.348-13.656-30.348-30.348V334.871c0-16.691,13.656-30.348,30.348-30.348h453.836
	c16.693,0,30.348,13.656,30.348,30.348V1051.272z"/>
</svg>
