<svg xmlns="http://www.w3.org/2000/svg" xmlns:xlink="http://www.w3.org/1999/xlink" x="0px" y="0px"
	 width="12.5px" height="10.16px" viewBox="0 0 12.5 10.16" enable-background="new 0 0 12.5 10.16" xml:space="preserve">
<path d="M11.221,2.531c0.006,0.11,0.008,0.221,0.008,0.332c0,3.389-2.58,7.297-7.296,7.297c-1.448,0-2.796-0.426-3.931-1.152
	c0.201,0.023,0.405,0.035,0.612,0.035c1.202,0,2.308-0.41,3.185-1.098C2.676,7.924,1.729,7.182,1.402,6.164
	c0.156,0.029,0.317,0.047,0.482,0.047c0.233,0,0.46-0.031,0.675-0.09C1.386,5.885,0.502,4.848,0.502,3.605c0-0.012,0-0.021,0-0.032
	c0.346,0.192,0.742,0.308,1.162,0.321C0.976,3.434,0.523,2.649,0.523,1.759c0-0.47,0.126-0.911,0.347-1.289
	c1.265,1.552,3.154,2.572,5.286,2.68C6.111,2.962,6.09,2.766,6.09,2.565C6.09,1.148,7.238,0,8.654,0c0.736,0,1.404,0.312,1.871,0.81
	c0.584-0.115,1.134-0.328,1.629-0.622c-0.191,0.599-0.598,1.101-1.127,1.418c0.519-0.062,1.013-0.2,1.473-0.404l0,0l0,0l0,0
	C12.156,1.718,11.721,2.169,11.221,2.531z"/>
</svg>
