<?xml version="1.0" encoding="utf-8"?>
<!-- Generator: Adobe Illustrator 16.0.0, SVG Export Plug-In . SVG Version: 6.00 Build 0)  -->
<!DOCTYPE svg PUBLIC "-//W3C//DTD SVG 1.1//EN" "http://www.w3.org/Graphics/SVG/1.1/DTD/svg11.dtd">
<svg version="1.1" id="Слой_1" xmlns="http://www.w3.org/2000/svg" xmlns:xlink="http://www.w3.org/1999/xlink" x="0px" y="0px"
	 width="474.373px" height="434.317px" viewBox="188.072 20.954 474.373 434.317"
	 enable-background="new 188.072 20.954 474.373 434.317" xml:space="preserve">
<path d="M350.94,253.351h76.195v77.625H350.94V253.351z M517.142,279.067h79.054v-56.194h-79.054V279.067z M517.142,318.593h79.054
	v-22.382h-79.054V318.593z M250.456,330.976h76.196v-77.625h-76.196V330.976z M427.135,393.361H239.028
	c-28.098,0-50.956-22.859-50.956-50.955V72.862c0-28.573,23.335-51.908,51.908-51.908h297.64c28.573,0,51.908,23.335,51.908,51.908
	v60.957h-33.335v-14.763h-334.31v217.635c0,12.857,10.477,23.334,23.335,23.334h181.917V393.361z M324.747,71.434
	c0,9.048,7.144,16.668,16.668,16.668c9.048,0,16.668-7.144,16.668-16.668s-7.144-16.668-16.668-16.668
	S324.747,62.385,324.747,71.434z M276.649,71.434c0,9.048,7.144,16.668,16.668,16.668l0,0c8.096,0,14.763-5.715,16.191-13.334
	c0-0.952,0.477-2.381,0.477-3.333c0-0.952,0-2.381-0.477-3.333c-1.429-7.62-8.096-13.334-16.191-13.334l0,0
	C283.792,54.766,276.649,62.385,276.649,71.434z M228.55,71.434c0,9.048,7.144,16.668,16.668,16.668
	c9.048,0,16.668-7.144,16.668-16.668s-7.144-16.668-16.668-16.668S228.55,62.385,228.55,71.434z M427.135,199.062
	c0-19.525,8.572-36.669,21.907-49.051H250.456v73.814h176.679V199.062z M653.819,421.935V199.062
	c0-18.096-14.764-33.335-33.336-33.335H492.378c-18.097,0-33.336,14.763-33.336,33.335v222.874
	c0,18.096,14.764,33.336,33.336,33.336h128.104C638.579,455.271,653.819,440.507,653.819,421.935z M620.483,198.109
	c0.477,0,0.952,0.476,0.952,0.952v222.874c0,0.477-0.476,0.951-0.952,0.951H492.378c-0.477,0-0.952-0.475-0.952-0.951V199.062
	c0-0.476,0.476-0.952,0.952-0.952H620.483z M517.142,358.597h79.054v-22.383h-79.054V358.597z M517.142,398.123h79.054v-22.381
	h-79.054V398.123z"/>
</svg>
