<?xml version="1.0" encoding="utf-8"?>
<!-- Generator: Adobe Illustrator 16.0.0, SVG Export Plug-In . SVG Version: 6.00 Build 0)  -->
<!DOCTYPE svg PUBLIC "-//W3C//DTD SVG 1.1//EN" "http://www.w3.org/Graphics/SVG/1.1/DTD/svg11.dtd">
<svg version="1.1" id="Слой_1" xmlns="http://www.w3.org/2000/svg" xmlns:xlink="http://www.w3.org/1999/xlink" x="0px" y="0px"
	 width="17px" height="14.57px" viewBox="0 0.215 17 14.57" enable-background="new 0 0.215 17 14.57" xml:space="preserve">
<g>
	<path d="M8.521,11.998l-2.617-1.496c-0.116-0.066-0.21-0.012-0.21,0.123v3.362H5.693c0,0.887,0.473,1.062,1.051,0.389l1.821-2.124
		C8.639,12.167,8.618,12.053,8.521,11.998z"/>
	<path d="M16.139,0.275L0.672,5.432c-0.842,0.281-0.9,0.869-0.13,1.311l4.12,2.354C4.76,9.151,4.911,9.145,5.002,9.08l8.191-5.729
		c0.457-0.318,0.493-0.273,0.082,0.103L6.342,9.791c-0.1,0.09-0.085,0.217,0.031,0.283l6.006,3.432c0.48,0.275,1,0.064,1.152-0.469
		l3.422-11.98C17.137,0.417,16.77,0.066,16.139,0.275z"/>
</g>
</svg>
