<svg xmlns="http://www.w3.org/2000/svg" xmlns:xlink="http://www.w3.org/1999/xlink" version="1.1" x="0px" y="0px" viewBox="0 0 500 625" style="enable-background:new 0 0 500 500;" xml:space="preserve"><title>pinetree-branding-symbols-</title><path d="M117.4,22.4v450.3h265.1V22.4H117.4z M372.5,462.7H127.4V32.4h245.1V462.7z"/><path d="M133.9,416.8h232.1V78.3H133.9V416.8z M143.9,88.3h212.1v318.5H143.9V88.3z"/><rect x="230" y="50.8" width="40" height="6.3"/><rect x="158" y="270.5" width="184" height="4.3"/><rect x="158" y="256.4" width="184" height="4.3"/><rect x="158" y="242.4" width="184" height="4.3"/><rect x="158" y="284.6" width="184" height="4.3"/><rect x="158" y="298.7" width="184" height="4.3"/><rect x="158" y="312.8" width="184" height="4.3"/><rect x="256.1" y="132.3" width="70.8" height="4.3"/><rect x="256.1" y="118.2" width="70.8" height="4.3"/><rect x="256.1" y="104.1" width="70.8" height="4.3"/><rect x="158" y="227.6" width="102.3" height="4.3"/><rect x="158" y="213.5" width="102.3" height="4.3"/><rect x="158" y="199.4" width="102.3" height="4.3"/><rect x="158" y="185.3" width="102.3" height="4.3"/><rect x="158" y="171.2" width="102.3" height="4.3"/><path d="M240.6,141l-22.4-40.7l-5,9.1l-6.7-12.1l-9.2,16.8l-7.5-13.7L167.4,141h15.1l-2.4,4.5h7.6v4.9h4.2v-4.9h12.6v11.8h4.2v-11.8  h7.5v4.9h4.2v-4.9h12.8l-2.5-4.5H240.6z M174.5,136.8l15.3-27.8l5.2,9.4l-10.1,18.5L174.5,136.8z M226,141.3h-38.9l0.1-0.3  l12.4-22.6l6.8-12.4l4.3,7.8l15,27.2L226,141.3z M215.6,113.8l2.6-4.8l15.3,27.8h-5.2L215.6,113.8z"/><path d="M342,392.9L342,392.9v-64H158v1l0,0v0.5l0,0v64h184v-0.5l0,0V392.9z M161.6,332.9h176.8v57.3H161.6V332.9z"/><path d="M272.7,171.7v59.7h67.2v-59.7H272.7z M276.3,228v-52.8h59.9V228H276.3z"/><path d="M234.3,423.8v31.3h31.3v-31.3H234.3z M239.7,449.8v-20.7h20.7v20.6L239.7,449.8z"/><text x="0" y="515" fill="#000000" font-size="5px" font-weight="bold" font-family="'Helvetica Neue', Helvetica, Arial-Unicode, Arial, Sans-serif">Created by Jordan Halliday</text><text x="0" y="520" fill="#000000" font-size="5px" font-weight="bold" font-family="'Helvetica Neue', Helvetica, Arial-Unicode, Arial, Sans-serif">from the Noun Project</text></svg>