<svg version="1.1" id="Слой_1" xmlns="http://www.w3.org/2000/svg" xmlns:xlink="http://www.w3.org/1999/xlink" x="0px" y="0px"
	 width="16px" height="13.96px" viewBox="257.15 535.317 16 13.96" enable-background="new 257.15 535.317 16 13.96"
	 xml:space="preserve">
<path d="M260.615,535.418c1.719-0.395,3.492,0.395,4.535,1.943c1.042-1.549,2.816-2.338,4.535-1.943
	c2,0.451,3.465,2.281,3.465,4.338c0,3.521-2.62,6.703-7.803,9.465c-0.057,0.027-0.141,0.057-0.197,0.057s-0.141-0.029-0.197-0.057
	c-5.184-2.762-7.803-5.943-7.803-9.465C257.122,537.699,258.587,535.869,260.615,535.418z M259.883,538.15
	c0.057-0.057,0.141-0.113,0.197-0.17c0.084-0.055,0.141-0.084,0.225-0.141c0.085-0.057,0.197-0.084,0.311-0.111
	c0.225-0.057,0.366-0.283,0.31-0.508c-0.056-0.225-0.281-0.365-0.507-0.311c-0.169,0.057-0.311,0.086-0.451,0.17
	c-0.112,0.057-0.225,0.113-0.338,0.197c-0.112,0.084-0.225,0.168-0.31,0.254c-1.042,0.984-1.296,2.535-0.62,3.803
	c0.085,0.141,0.226,0.225,0.367,0.225c0.056,0,0.141,0,0.197-0.057c0.196-0.113,0.281-0.365,0.168-0.563
	C258.925,540.01,259.122,538.883,259.883,538.15z"/>
</svg>
