<svg version="1.1" id="Слой_1" xmlns="http://www.w3.org/2000/svg" xmlns:xlink="http://www.w3.org/1999/xlink" x="0px" y="0px"
	 width="691.62px" height="697.68px" viewBox="249.503 344.276 691.62 697.68"
	 enable-background="new 249.503 344.276 691.62 697.68" xml:space="preserve">
<g>
	<path d="M925.699,953.969L761.765,790.037c33.02-46.273,52.553-103.011,52.088-164.631
		c-0.465-154.633-126.729-280.896-281.361-281.129c-156.027-0.465-282.756,125.799-282.988,281.826
		c-0.232,150.446,125.101,279.268,275.547,282.756c60.69,1.395,117.195-16.51,163.701-47.669l165.793,165.794
		c20.23,20.229,53.018,19.997,73.016-0.931C946.394,1005.591,945.464,973.502,925.699,953.969z M336.702,625.871
		c0-107.661,87.198-195.092,195.092-195.092c107.661,0,195.092,87.198,195.092,195.092s-87.197,195.092-195.092,195.092
		C424.134,820.963,336.702,733.532,336.702,625.871z"/>
</g>
</svg>
