<svg xmlns="http://www.w3.org/2000/svg" xmlns:xlink="http://www.w3.org/1999/xlink" version="1.1" x="0px" y="0px" viewBox="0 0 100 125" enable-background="new 0 0 100 100" xml:space="preserve"><circle cx="50" cy="53.5" r="14"/><path d="M83,25.5h-3.208h-1.985c-2.641,0-5.531-2.033-6.425-4.518l-1.784-4.965c-0.895-2.484-3.785-4.518-6.425-4.518H36.827  c-2.639,0-5.531,2.033-6.424,4.518l-1.785,4.965c-0.894,2.484-3.784,4.518-6.424,4.518h-1.986H17c-6.6,0-12,5.398-12,12v39  c0,6.6,5.4,12,12,12h66c6.6,0,12-5.4,12-12v-39C95,30.898,89.6,25.5,83,25.5z M50,77.5c-13.256,0-24-10.741-24-24s10.744-24,24-24  c13.258,0,24,10.741,24,24S63.258,77.5,50,77.5z M82.5,41.25c-2.07,0-3.75-1.679-3.75-3.75c0-2.072,1.68-3.75,3.75-3.75  s3.75,1.678,3.75,3.75C86.25,39.571,84.57,41.25,82.5,41.25z"/><text x="0" y="115" fill="#000000" font-size="5px" font-weight="bold" font-family="'Helvetica Neue', Helvetica, Arial-Unicode, Arial, Sans-serif">Created by David</text><text x="0" y="120" fill="#000000" font-size="5px" font-weight="bold" font-family="'Helvetica Neue', Helvetica, Arial-Unicode, Arial, Sans-serif">from the Noun Project</text></svg>