<svg xmlns="http://www.w3.org/2000/svg" xmlns:xlink="http://www.w3.org/1999/xlink" version="1.1" x="0px" y="0px" viewBox="0 0 16 20" style="enable-background:new 0 0 16 16;" xml:space="preserve"><g><polygon points="10,8 4,2 4,5 0,5 0,11 4,11 4,14  "/><path d="M13.5,0H9C8.448,0,8,0.448,8,1s0.448,1,1,1h4.5C13.771,2,14,2.229,14,2.5v11c0,0.271-0.229,0.5-0.5,0.5H9   c-0.552,0-1,0.447-1,1s0.448,1,1,1h4.5c1.379,0,2.5-1.121,2.5-2.5v-11C16,1.122,14.879,0,13.5,0z"/></g><text x="0" y="31" fill="#000000" font-size="5px" font-weight="bold" font-family="'Helvetica Neue', Helvetica, Arial-Unicode, Arial, Sans-serif">Created by Rflor</text><text x="0" y="36" fill="#000000" font-size="5px" font-weight="bold" font-family="'Helvetica Neue', Helvetica, Arial-Unicode, Arial, Sans-serif">from the Noun Project</text></svg>