<svg xmlns:dc="http://purl.org/dc/elements/1.1/" xmlns:cc="http://creativecommons.org/ns#" xmlns:rdf="http://www.w3.org/1999/02/22-rdf-syntax-ns#" xmlns:svg="http://www.w3.org/2000/svg" xmlns="http://www.w3.org/2000/svg" xmlns:sodipodi="http://sodipodi.sourceforge.net/DTD/sodipodi-0.dtd" xmlns:inkscape="http://www.inkscape.org/namespaces/inkscape" viewBox="0 0 100 125" version="1.1" x="0px" y="0px"><g transform="translate(0,-952.36216)"><path style="color:#000000;clip-rule:nonzero;display:inline;overflow:visible;visibility:visible;opacity:1;isolation:auto;mix-blend-mode:normal;color-interpolation:sRGB;color-interpolation-filters:linearRGB;solid-color:#000000;solid-opacity:1;fill:#000000;fill-opacity:1;fill-rule:nonzero;stroke:none;stroke-width:500;stroke-linecap:square;stroke-linejoin:miter;stroke-miterlimit:4;stroke-dasharray:none;stroke-dashoffset:0;stroke-opacity:1;marker:none;color-rendering:auto;image-rendering:auto;shape-rendering:auto;text-rendering:auto;enable-background:accumulate" d="M 41.451172 7.5 C 40.721152 7.49 39.841723 7.60585 38.720703 7.90625 C 32.741933 9.50825 35.335029 12.221606 29.974609 15.316406 C 24.614189 18.411306 23.562317 14.808747 19.185547 19.185547 C 14.808797 23.562247 18.411246 24.614209 15.316406 29.974609 C 12.221566 35.335109 9.50827 32.742003 7.90625 38.720703 C 6.30426 44.699503 9.9511719 43.81024 9.9511719 50 C 9.9512019 56.1897 6.30426 55.300497 7.90625 61.279297 C 9.50827 67.257997 12.221566 64.664991 15.316406 70.025391 C 18.411246 75.385791 14.808797 76.437753 19.185547 80.814453 C 23.562317 85.191253 24.614189 81.588694 29.974609 84.683594 C 35.335029 87.778394 32.741933 90.49175 38.720703 92.09375 C 44.699473 93.69575 43.81033 90.048828 50 90.048828 C 56.18968 90.048828 55.300537 93.69575 61.279297 92.09375 C 67.258067 90.49175 64.664975 87.778394 70.025391 84.683594 C 75.385807 81.588694 76.437683 85.191253 80.814453 80.814453 C 85.191205 76.437753 81.588755 75.385791 84.683594 70.025391 C 87.778432 64.664891 90.491735 67.257997 92.09375 61.279297 C 93.695748 55.300497 90.048828 56.1897 90.048828 50 C 90.048792 43.81024 93.695748 44.699503 92.09375 38.720703 C 90.491735 32.742003 87.778432 35.335109 84.683594 29.974609 C 81.588755 24.614209 85.191205 23.562247 80.814453 19.185547 C 76.437683 14.808747 75.385807 18.411306 70.025391 15.316406 C 64.664975 12.221606 67.258067 9.50825 61.279297 7.90625 C 55.300537 6.30425 56.18968 9.9511719 50 9.9511719 C 44.97089 9.9511719 44.614622 7.5432 41.451172 7.5 z M 50 16.162109 C 68.671701 16.162109 83.837891 31.32824 83.837891 50 C 83.837891 68.6717 68.671701 83.837891 50 83.837891 C 31.3283 83.837891 16.162109 68.6717 16.162109 50 C 16.162109 31.32824 31.3283 16.162109 50 16.162109 z M 50 18.851562 C 32.78156 18.851562 18.851562 32.78154 18.851562 50 C 18.851562 67.2184 32.78156 81.148438 50 81.148438 C 67.21844 81.148438 81.148437 67.2184 81.148438 50 C 81.148438 32.78154 67.21844 18.851562 50 18.851562 z M 50 27.195312 C 53.48925 27.195312 55.284559 37.212742 58.107422 39.263672 C 60.930285 41.314602 71.011607 39.925671 72.089844 43.244141 C 73.168082 46.562621 64.197379 51.367047 63.119141 54.685547 C 62.040903 58.003947 66.475207 67.161991 63.652344 69.212891 C 60.829481 71.263791 53.48925 64.216797 50 64.216797 C 46.510749 64.216797 39.170519 71.263791 36.347656 69.212891 C 33.524793 67.161991 37.959097 58.003947 36.880859 54.685547 C 35.802621 51.367047 26.831918 46.562611 27.910156 43.244141 C 28.988394 39.925671 39.069715 41.314602 41.892578 39.263672 C 44.715441 37.212742 46.510749 27.195312 50 27.195312 z " transform="translate(0,952.36216)"/></g><text x="0" y="115" fill="#000000" font-size="5px" font-weight="bold" font-family="'Helvetica Neue', Helvetica, Arial-Unicode, Arial, Sans-serif">Created by Andrew Doane</text><text x="0" y="120" fill="#000000" font-size="5px" font-weight="bold" font-family="'Helvetica Neue', Helvetica, Arial-Unicode, Arial, Sans-serif">from the Noun Project</text></svg>