<svg xmlns="http://www.w3.org/2000/svg" xmlns:xlink="http://www.w3.org/1999/xlink" version="1.1" x="0px" y="0px" viewBox="0 0 100 125" enable-background="new 0 0 100 100" xml:space="preserve"><path fill-rule="evenodd" clip-rule="evenodd" d="M65.425,23.75c5.8,8.1,8.7,16.733,8.7,25.9c0,8-1.834,14.917-5.5,20.75  c-3.767,6.033-10.416,10.85-19.95,14.45v0.05c0.034,0.1,0.067,0.233,0.101,0.4c0.434,2.233,1.116,4.517,2.05,6.85  c0.2,0.5,0.2,1.033,0,1.6c-0.233,0.5-0.601,0.867-1.101,1.1c-0.566,0.2-1.1,0.2-1.6,0c-0.566-0.233-0.95-0.6-1.15-1.1  c-1-2.433-1.732-4.85-2.199-7.25c-0.167-0.267-0.234-0.517-0.2-0.75c-0.067-0.3-0.116-0.583-0.15-0.85c0-0.033,0-0.066,0-0.1  c-0.066-0.267-0.116-0.55-0.149-0.85c-0.268-2.233-0.4-4.867-0.4-7.9c0-4.066,0.767-9.3,2.3-15.7c1.101-4.4,1.817-8.033,2.15-10.9  c0.1-1.133,0.149-2.15,0.149-3.05c0-0.066,0-0.133,0-0.2c-0.399,1.066-0.85,2.183-1.35,3.35c-1.166,2.733-2.45,5.767-3.85,9.1  c-2.167,5.8-3.351,11.6-3.551,17.4c-0.033,1.5,0,3.05,0.101,4.65c-4.034-3.034-6.684-5.25-7.95-6.65c-4-4.433-6-9.417-6-14.95  c0-3.167,0.934-6.583,2.8-10.25c0.967-1.867,3.017-5.117,6.15-9.75c5.966-8.833,8.95-16.434,8.95-22.8c0-1.6-0.283-4-0.851-7.2  C42.592,7.367,42.291,6,42.025,5C51.791,9.233,59.592,15.483,65.425,23.75z"/><text x="0" y="115" fill="#000000" font-size="5px" font-weight="bold" font-family="'Helvetica Neue', Helvetica, Arial-Unicode, Arial, Sans-serif">Created by Saeful Muslim</text><text x="0" y="120" fill="#000000" font-size="5px" font-weight="bold" font-family="'Helvetica Neue', Helvetica, Arial-Unicode, Arial, Sans-serif">from the Noun Project</text></svg>