<svg version="1.1" xmlns="http://www.w3.org/2000/svg" xmlns:xlink="http://www.w3.org/1999/xlink" x="0px" y="0px"
	 width="17px" height="15px" viewBox="206.645 54.434 428.609 367.357" fill="#555"
	 enable-background="new 206.645 54.434 428.609 367.357" xml:space="preserve">
<g>
	<path d="M421.488,351.521l-66-37.719c-2.919-1.68-5.291-0.299-5.291,3.072v84.787h-0.009c0,22.363,11.91,26.773,26.468,9.801
		l45.932-53.566C424.421,355.767,423.921,352.906,421.488,351.521z"/>
	<path d="M613.52,55.971l-389.946,129.98c-21.221,7.077-22.691,21.935-3.276,33.041l103.884,59.361
		c2.438,1.386,6.276,1.209,8.577-0.4l206.509-144.439c11.506-8.039,12.43-6.891,2.067,2.581L366.512,295.854
		c-2.485,2.281-2.128,5.467,0.796,7.139l151.42,86.525c12.134,6.938,25.206,1.619,29.045-11.82L634.07,75.663
		C638.679,59.528,629.421,50.67,613.52,55.971z"/>
</g>
</svg>
