
<svg version="1.1"xmlns="http://www.w3.org/2000/svg" xmlns:xlink="http://www.w3.org/1999/xlink" x="0px" y="0px"
	 width="1131.022px" height="1131.022px" viewBox="-30.461 402.56 1131.022 1131.022"
	 enable-background="new -30.461 402.56 1131.022 1131.022" xml:space="preserve">
<path d="M535.05,402.56c-311.924,0-565.511,253.587-565.511,565.512c0,311.923,253.587,565.511,565.511,565.511l0,0l0,0l0,0
	c311.924,0,565.511-253.588,565.511-565.511C1100.561,656.148,846.974,402.56,535.05,402.56z M56.449,1010.931H232.65
	c2.381,63.099,9.524,122.626,22.621,177.392H108.833C79.07,1133.558,61.211,1074.031,56.449,1010.931z M577.91,664.481V497.804
	c38.098,17.858,75.004,59.527,104.768,119.055c7.144,15.478,14.287,30.954,20.24,47.622H577.91z M729.109,749.01
	c13.097,54.765,21.431,114.292,23.812,177.392H576.719V749.01H729.109z M492.19,497.804v166.677H367.183
	c5.953-16.668,13.096-32.145,20.239-47.622C418.376,557.332,455.283,515.663,492.19,497.804z M492.19,749.01v177.392H315.989
	c2.381-61.908,10.715-122.626,23.811-177.392H492.19z M231.46,925.213H55.259c5.953-63.1,23.811-122.627,51.193-177.393H252.89
	C242.175,803.776,233.841,863.303,231.46,925.213z M317.18,1010.931h176.201v177.392h-152.39
	C327.894,1132.367,319.561,1072.84,317.18,1010.931z M492.19,1271.662v166.677c-38.098-17.858-75.004-59.527-104.768-119.055
	c-7.143-15.478-14.287-30.954-20.239-47.622H492.19z M577.91,1438.339v-166.677h125.008c-5.953,16.668-13.096,32.145-20.24,47.622
	C651.724,1378.811,614.817,1420.48,577.91,1438.339z M577.91,1187.134v-177.393h176.201
	c-2.381,61.909-10.715,122.626-23.811,177.393H577.91z M838.64,1010.931h176.201c-5.953,63.099-23.811,122.626-51.193,177.392
	H817.21C827.925,1132.367,836.259,1072.84,838.64,1010.931z M838.64,925.213c-2.381-63.1-9.523-122.627-22.621-177.393h146.438
	c27.383,53.574,45.241,113.103,51.193,177.393H838.64z M907.692,664.481H793.4c-17.858-52.384-39.288-97.625-65.48-136.913
	C798.162,558.522,858.88,604.954,907.692,664.481z M342.181,527.568c-25.001,38.098-47.622,84.529-65.48,136.913H162.408
	C211.22,604.954,271.939,558.522,342.181,527.568z M162.408,1271.662h114.292c17.858,52.385,39.288,97.625,65.48,136.913
	C271.939,1377.621,211.22,1331.189,162.408,1271.662z M727.919,1408.575c25.001-38.097,47.622-84.528,65.48-136.913h114.292
	C858.88,1331.189,798.162,1377.621,727.919,1408.575z"/>
</svg>
