<svg version="1.1"
	 xmlns="http://www.w3.org/2000/svg" xmlns:xlink="http://www.w3.org/1999/xlink" x="0px" y="0px" width="16px" height="16px" fill="#555"
	 viewBox="0 0 512 512" enable-background="new 0 0 512 512" xml:space="preserve">
<path  d="M448,0H64C28.654,0,0,28.654,0,64v384c0,35.347,28.653,64,64,64h384c35.346,0,64-28.653,64-64V64
	C512,28.654,483.346,0,448,0z M415.06,174.422c0.151,3.522,0.233,7.058,0.233,10.625c0,108.443-82.547,233.491-233.491,233.491
	c-46.342,0-89.477-13.588-125.802-36.882c6.424,0.767,12.956,1.157,19.573,1.157c38.458,0,73.845-13.121,101.924-35.136
	c-35.903-0.663-66.214-24.393-76.653-56.989c5.006,0.947,10.142,1.477,15.438,1.477c7.476,0,14.728-1.011,21.614-2.876
	c-37.537-7.551-65.827-40.717-65.827-80.476c0-0.346,0-0.692,0.004-1.03c11.073,6.145,23.725,9.833,37.17,10.261
	c-22.021-14.717-36.505-39.831-36.505-68.303c0-15.049,4.046-29.142,11.111-41.263c40.477,49.659,100.939,82.322,169.147,85.753
	c-1.401-6.015-2.129-12.274-2.129-18.704c0-45.319,36.747-82.066,82.072-82.066c23.596,0,44.932,9.962,59.893,25.914
	c18.697-3.682,36.265-10.504,52.12-19.908c-6.131,19.154-19.146,35.241-36.08,45.397c16.601-1.986,32.41-6.393,47.127-12.923v0H456
	l-0.001,0C445.003,148.402,431.081,162.849,415.06,174.422z"/>
</svg>
