
<svg version="1.1" xmlns="http://www.w3.org/2000/svg" xmlns:xlink="http://www.w3.org/1999/xlink" x="0px" y="0px"
	 width="15px" height="15px" viewBox="0 97.797 1190.55 1190.55" fill="#555" enable-background="new 0 97.797 1190.55 1190.55"
	 xml:space="preserve">
<g>
	<path d="M595.274,97.797C266.514,97.797,0,364.31,0,693.072c0,328.761,266.514,595.274,595.274,595.274
		c328.762,0,595.276-266.514,595.276-595.274C1190.144,364.478,923.869,98.202,595.274,97.797z M416.987,192.834
		c-46.05,63.119-79.792,134.352-99.458,209.968H147.345C211.887,305.246,306.59,231.501,416.987,192.834z M122.296,455.109h184.182
		c-15.587,69.469-24.468,140.273-26.522,211.44H64.832c3.521-73.555,22.339-145.567,55.254-211.44H122.296z M64.832,719.594h215.124
		c1.199,72.361,9.59,144.424,25.049,215.124H122.296C87.989,867.94,68.394,794.584,64.832,719.594z M153.239,987.762h165.026
		c19.301,74.347,52.552,144.349,97.984,206.283C308.769,1155.194,216.582,1082.891,153.239,987.762z M568.753,1224.252
		l-48.624-4.421c-73.579-58.484-125.453-139.926-147.346-231.332h195.97V1224.252z M568.753,935.455H360.259
		C343.371,864.952,334.23,792.817,333,720.331h235.753V935.455z M568.753,667.286H333c1.355-71.219,10.245-142.094,26.522-211.44
		h209.23V667.286z M568.753,402.802H373.521c21.348-92.655,73.247-175.434,147.345-235.016c16.208,0,31.68-3.685,48.624-5.157
		L568.753,402.802z M1125.718,667.286h-213.65c-2.496-71.461-11.871-142.515-27.996-212.177h181.971
		c34.553,65.494,54.889,137.546,59.676,211.44V667.286z M1039.521,402.802H874.494c-19.561-75.294-53.045-146.26-98.721-209.23
		C883.867,233.199,976.339,306.557,1039.521,402.802z M621.796,162.629c16.209,0,33.891,0,50.098,5.157
		c74.1,59.582,125.998,142.36,147.346,235.016H621.796V162.629z M621.796,457.319h210.705
		c16.064,69.385,24.953,140.237,26.521,211.44H621.796V457.319z M621.796,721.803h237.227
		c-1.684,72.454-10.818,144.541-27.26,215.125H621.796V721.803z M671.894,1221.304c-16.207,0-33.152,3.684-50.098,5.157V987.762
		h195.232c-21.41,91.061-72.461,172.432-145.135,231.332V1221.304z M775.773,1195.519c44.863-61.903,77.838-131.602,97.248-205.547
		h164.289c-63.539,93.511-155.113,164.447-261.537,202.6V1195.519z M1070.464,937.665H884.072
		c15.346-70.72,23.734-142.771,25.049-215.124h213.65c-3.059,73.771-21.635,146.068-54.518,212.177L1070.464,937.665z"/>
</g>
</svg>
