<svg version="1.1" xmlns="http://www.w3.org/2000/svg" xmlns:xlink="http://www.w3.org/1999/xlink" x="0px" y="0px"
	 width="16px" height="16px" viewBox="0 0 1142.929 1142.928" fill="#555" enable-background="new 0 0 1142.929 1142.928"
	 xml:space="preserve">
<path d="M1047.684,0.001H95.245C42.86,0.001,0,42.86,0,95.245v952.438c0,52.387,42.86,95.244,95.244,95.244h952.439
	c52.383,0,95.244-42.857,95.244-95.244V95.245C1142.928,42.86,1100.067,0.001,1047.684,0.001z M345.259,881.007
	c-46.026,0-83.338-37.313-83.338-83.34c0-46.025,37.312-83.338,83.338-83.338c46.025,0,83.339,37.313,83.339,83.338
	C428.598,843.695,391.285,881.007,345.259,881.007z M571.463,881.007c0-171.439-138.105-309.543-309.543-309.543V469.077
	c228.585,0,411.93,183.344,411.93,411.93H571.463L571.463,881.007z M778.62,881.007c0-285.732-230.967-516.699-516.699-516.699
	V261.921c342.879,0,619.086,276.208,619.086,619.086H778.62z"/>
</svg>
