<svg version="1.1" id="Слой_1" xmlns="http://www.w3.org/2000/svg" xmlns:xlink="http://www.w3.org/1999/xlink" x="0px" y="0px"
	 width="631.23px" height="1072.209px" viewBox="177.541 38.134 631.23 1072.209"
	 enable-background="new 177.541 38.134 631.23 1072.209" xml:space="preserve">
<path d="M177.541,38.134v1072.209h631.23V38.134H177.541z M784.96,1086.532H201.353V61.944H784.96V1086.532z"/>
<path d="M216.829,977.239h552.653V171.237H216.829V977.239z M240.641,195.048h505.031v758.381H240.641V195.048z"/>
<rect x="445.653" y="105.757" width="95.243" height="15.001"/>
<rect x="274.214" y="628.885" width="438.122" height="10.238"/>
<rect x="274.214" y="595.31" width="438.122" height="10.239"/>
<rect x="274.214" y="561.975" width="438.122" height="10.238"/>
<rect x="274.214" y="662.458" width="438.122" height="10.238"/>
<rect x="274.214" y="696.031" width="438.122" height="10.239"/>
<rect x="274.214" y="729.604" width="438.122" height="10.239"/>
<rect x="507.8" y="299.816" width="168.582" height="10.239"/>
<rect x="507.8" y="266.243" width="168.582" height="10.238"/>
<rect x="507.8" y="232.669" width="168.582" height="10.239"/>
<rect x="274.214" y="526.735" width="243.586" height="10.238"/>
<rect x="274.214" y="493.162" width="243.586" height="10.238"/>
<rect x="274.214" y="459.588" width="243.586" height="10.239"/>
<rect x="274.214" y="426.014" width="243.586" height="10.239"/>
<rect x="274.214" y="392.441" width="243.586" height="10.238"/>
<path d="M470.893,320.532l-53.337-96.911l-11.905,21.668l-15.953-28.812l-21.906,40.003l-17.858-32.621l-53.337,96.673h35.955
	l-5.715,10.715h18.097v11.667h10v-11.667h30.002v28.097h10.001v-28.097h17.858v11.667h10v-11.667h30.479l-5.953-10.715H470.893z
	 M313.502,310.531l36.431-66.194l12.382,22.382l-24.049,44.051L313.502,310.531z M436.129,321.246h-92.625l0.238-0.714
	l29.525-53.813l16.191-29.525l10.239,18.572l35.716,64.767L436.129,321.246z M411.365,255.765l6.19-11.429l36.432,66.194h-12.382
	L411.365,255.765z"/>
<path d="M712.335,920.331L712.335,920.331V767.94H274.214v2.382l0,0v1.19l0,0v152.39h438.122v-1.19l0,0V920.331z M282.786,777.465
	h420.979v136.438H282.786V777.465z"/>
<path d="M547.326,393.632v142.151h160.01V393.632H547.326z M555.898,527.687V401.966h142.627v125.722H555.898z"/>
<path d="M455.892,993.907v74.528h74.528v-74.528H455.892z M468.75,1055.815v-49.289h49.289v49.051L468.75,1055.815z"/>
</svg>
