<svg version="1.1"
	 id="Layer_1" xmlns:xlink="http://www.w3.org/1999/xlink" x="0px" y="0px" width="16px" height="16px" fill="#555"
	 viewBox="0 0 512 512" enable-background="new 0 0 512 512" xml:space="preserve">
<g>
	<path  d="M246.865,171.693c0-37.569-22.392-95.988-65.568-95.988c-13.576,0-28.117,6.779-36.468,17.225
		c-8.861,10.969-11.435,25.009-11.435,38.611c0,34.938,20.291,92.833,65.078,92.833c13.003,0,27.011-6.229,35.387-14.578
		C245.83,197.75,246.865,181.094,246.865,171.693z"/>
	<path  d="M448,0H64C28.654,0,0,28.654,0,64v384c0,35.347,28.654,64,64,64h384c35.347,0,64-28.653,64-64V64
		C512,28.654,483.347,0,448,0z M173.455,456.001c-75.491,0-111.902-35.978-111.902-74.604c0-18.769,9.353-45.354,40.067-63.623
		c32.259-19.826,76.015-22.419,99.449-24.034c-7.318-9.38-15.624-19.292-15.624-35.447c0-8.859,2.605-14.078,5.182-20.346
		c-5.735,0.533-11.43,1.045-16.644,1.045c-55.157,0-86.398-41.241-86.398-81.923c0-23.967,10.913-50.591,33.297-69.895
		C150.575,62.66,191.131,56,219.273,56h102.562l-33.852,21.27h-32.254c11.962,9.904,36.921,30.768,36.921,70.435
		c0,38.578-21.83,56.88-43.684,74.081c-6.778,6.766-14.594,14.075-14.594,25.57c0,11.447,7.816,17.701,13.528,22.439l18.76,14.568
		c22.911,19.299,43.728,37.03,43.713,73.063C310.373,406.468,262.984,456.001,173.455,456.001z M450.447,249.627h-52.329v52.476
		h-25.764v-52.476h-52.071V223.58h52.071v-52.16h25.764v52.16h52.329V249.627z"/>
	<path  d="M218.745,308.894c-4.142-0.524-6.746-0.524-11.951-0.524c-4.692,0-32.812,1.025-54.659,8.38
		c-11.462,4.146-44.759,16.675-44.759,53.708c0,37.042,35.914,63.685,91.605,63.685c49.985,0,76.547-24.057,76.547-56.354
		C275.528,351.114,258.341,337.067,218.745,308.894z"/>
</g>
</svg>
