<svg version="1.1" id="Слой_1" xmlns="http://www.w3.org/2000/svg" xmlns:xlink="http://www.w3.org/1999/xlink" x="0px" y="0px"
	 width="8.667px" height="8.667px" viewBox="3.667 3.667 8.667 8.667" enable-background="new 3.667 3.667 8.667 8.667"
	 xml:space="preserve">
<path d="M4.833,12.334c-0.645,0-1.167-0.523-1.167-1.168C3.667,10.522,4.189,10,4.833,10C5.478,10,6,10.522,6,11.166
	C6,11.811,5.478,12.334,4.833,12.334z M8,12.334C8,9.934,6.066,8,3.667,8V6.567c3.2,0,5.767,2.566,5.767,5.767H8L8,12.334z
	 M10.9,12.334c0-4-3.234-7.234-7.234-7.234V3.667c4.8,0,8.667,3.867,8.667,8.667H10.9z"/>
</svg>
