<svg version="1.1" id="Слой_1" xmlns="http://www.w3.org/2000/svg" xmlns:xlink="http://www.w3.org/1999/xlink" x="0px" y="0px"
	 width="1002.442px" height="886.593px" viewBox="94.053 250.425 1002.442 886.593"
	 enable-background="new 94.053 250.425 1002.442 886.593" xml:space="preserve">
<title>137all</title>
<path d="M1096.496,399.601H326.449L301.09,250.425H94.053v71.434h146.676L341.212,911.18
	c-58.959,29.106-83.16,100.497-54.054,159.456c29.106,58.96,100.497,83.16,159.457,54.055
	c57.128-28.202,81.93-96.381,56.274-154.697H764.81c-26.301,60.263,1.23,130.437,61.494,156.737
	c60.262,26.301,130.436-1.231,156.736-61.494c26.301-60.264-1.23-130.438-61.494-156.737c-15.113-6.597-31.432-9.98-47.92-9.939
	H411.573l-17.025-99.529h581.704L1096.496,399.601z"/>
</svg>
