<svg version="1.1"
 xmlns:xlink="http://www.w3.org/1999/xlink" x="0px" y="0px" width="16px" height="16px" fill="#555"
	 viewBox="0 0 512 512" enable-background="new 0 0 512 512" xml:space="preserve">
<path d="M448,0H64C28.654,0,0,28.654,0,64v384c0,35.347,28.654,64,64,64h384c35.347,0,64-28.653,64-64V64
	C512,28.654,483.347,0,448,0z M301.684,455.974c-87.137,1.5-120.146-62.073-120.146-106.83V218.456h-40.486v-51.664
	c60.685-21.881,75.276-76.626,78.701-107.812c0.236-2.144,1.922-2.98,2.89-2.98c0.938,0,58.578,0,58.578,0v101.894h80.049v60.563
	h-80.326v124.527c0.261,16.924,6.473,40.273,38.499,39.424c10.606-0.269,24.83-3.354,32.265-6.899l19.242,57.026
	C363.741,443.16,331.087,455.47,301.684,455.974z"/>
</svg>
