<svg xmlns="http://www.w3.org/2000/svg" xmlns:xlink="http://www.w3.org/1999/xlink" version="1.1" x="0px" y="0px" viewBox="0 0 1000 1250" style="enable-background:new 0 0 1000 1000;" xml:space="preserve"><g><path d="M136.6,443.1L851,192.7c0.7-0.2,1.4-0.4,2.1-0.5c6.6-0.7,37.8-1.6,6.2,48.2   C824.1,296,609.7,682.4,609.7,682.4s-29.7,54.9-81,22.5c-26.6-16.8-53.2-33.6-80.8-48.5L354,605.9c-5.8-3.1-6.5-11.3-1.3-15.3   L781.6,259L260.3,547c-2.8,1.5-6.2,1.5-8.9,0l-112.9-63.4c-0.9-0.5-1.6-1.1-2.3-1.8c-4-4.4-16.8-20.7-3.4-36.1   C133.8,444.5,135.2,443.6,136.6,443.1z"/><path d="M317.4,633.5l111.9,57.6c5.7,2.9,6.7,10.6,2,14.9l-108.5,99.4c-5.8,5.3-15.2,1.3-15.4-6.6L304,641.8   C303.9,634.9,311.2,630.3,317.4,633.5z"/></g><text x="0" y="1015" fill="#000000" font-size="5px" font-weight="bold" font-family="'Helvetica Neue', Helvetica, Arial-Unicode, Arial, Sans-serif">Created by sai aditya</text><text x="0" y="1020" fill="#000000" font-size="5px" font-weight="bold" font-family="'Helvetica Neue', Helvetica, Arial-Unicode, Arial, Sans-serif">from the Noun Project</text></svg>