<svg xmlns="http://www.w3.org/2000/svg" xmlns:xlink="http://www.w3.org/1999/xlink" version="1.1" x="0px" y="0px" viewBox="-545 370.9 100 125" style="enable-background:new -545 370.9 100 100;" xml:space="preserve"><path d="M-478.7,398.9c-6.1-1.4-12.4,1.4-16.1,6.9c-3.7-5.5-10-8.3-16.1-6.9c-7.1,1.6-12.3,8.1-12.3,15.4c0,12.5,9.3,23.8,27.7,33.6  c0.2,0.1,0.5,0.2,0.7,0.2s0.5-0.1,0.7-0.2c18.4-9.8,27.7-21.1,27.7-33.6C-466.3,407-471.5,400.5-478.7,398.9z M-476.1,408.6  c-0.2-0.2-0.5-0.4-0.7-0.6c-0.3-0.2-0.5-0.3-0.8-0.5c-0.3-0.2-0.7-0.3-1.1-0.4c-0.8-0.2-1.3-1-1.1-1.8c0.2-0.8,1-1.3,1.8-1.1  c0.6,0.2,1.1,0.3,1.6,0.6c0.4,0.2,0.8,0.4,1.2,0.7c0.4,0.3,0.8,0.6,1.1,0.9c3.7,3.5,4.6,9,2.2,13.5c-0.3,0.5-0.8,0.8-1.3,0.8  c-0.2,0-0.5,0-0.7-0.2c-0.7-0.4-1-1.3-0.6-2C-472.7,415.2-473.4,411.2-476.1,408.6z"/><text x="-545" y="485.9" fill="#000000" font-size="5px" font-weight="bold" font-family="'Helvetica Neue', Helvetica, Arial-Unicode, Arial, Sans-serif">Created by Kar2</text><text x="-545" y="490.9" fill="#000000" font-size="5px" font-weight="bold" font-family="'Helvetica Neue', Helvetica, Arial-Unicode, Arial, Sans-serif">from the Noun Project</text></svg>