<?xml version="1.0" encoding="utf-8"?>
<!-- Generator: Adobe Illustrator 16.0.0, SVG Export Plug-In . SVG Version: 6.00 Build 0)  -->
<!DOCTYPE svg PUBLIC "-//W3C//DTD SVG 1.1//EN" "http://www.w3.org/Graphics/SVG/1.1/DTD/svg11.dtd">
<svg version="1.1" id="Слой_1" xmlns="http://www.w3.org/2000/svg" xmlns:xlink="http://www.w3.org/1999/xlink" x="0px" y="0px"
	 width="574.429px" height="1071.495px" viewBox="308.066 157.324 574.429 1071.495"
	 enable-background="new 308.066 157.324 574.429 1071.495" xml:space="preserve">
<path d="M778.917,380.552c69.053,96.435,103.578,199.215,103.578,308.353c0,95.244-21.836,177.594-65.48,247.039
	c-44.848,71.825-124.008,129.175-237.515,172.034v0.596c0.405,1.19,0.798,2.773,1.202,4.762
	c5.167,26.585,13.287,53.777,24.407,81.553c2.381,5.953,2.381,12.299,0,19.049c-2.773,5.953-7.154,10.322-13.108,13.096
	c-6.738,2.382-13.096,2.382-19.049,0c-6.738-2.773-11.311-7.143-13.691-13.096c-11.905-28.966-20.62-57.741-26.18-86.314
	c-1.988-3.179-2.786-6.155-2.382-8.93c-0.798-3.571-1.381-6.94-1.785-10.119c0-0.394,0-0.786,0-1.191
	c-0.786-3.179-1.382-6.548-1.774-10.119c-3.19-26.585-4.762-57.944-4.762-94.054c0-48.407,9.131-110.721,27.382-186.916
	c13.108-52.385,21.633-95.637,25.598-129.771c1.19-13.488,1.773-25.597,1.773-36.312c0-0.785,0-1.583,0-2.381
	c-4.75,12.691-10.12,25.989-16.072,39.884c-13.882,32.537-29.169,68.658-45.836,108.34c-25.8,69.052-39.896,138.104-42.276,207.155
	c-0.394,17.858,0,36.313,1.202,55.36c-48.026-36.121-79.576-62.503-94.648-79.171c-47.622-52.777-71.434-112.114-71.434-177.987
	c0-37.705,11.12-78.374,33.336-122.031c11.513-22.228,35.919-60.921,73.219-116.079c71.028-105.161,106.554-195.655,106.554-271.445
	c0-19.049-3.369-47.622-10.131-85.72c-3.965-20.632-7.549-36.907-10.715-48.813C616.597,207.72,709.472,282.13,778.917,380.552z"/>
</svg>
