<svg xmlns:dc="http://purl.org/dc/elements/1.1/" xmlns:cc="http://creativecommons.org/ns#" xmlns:rdf="http://www.w3.org/1999/02/22-rdf-syntax-ns#" xmlns:svg="http://www.w3.org/2000/svg" xmlns="http://www.w3.org/2000/svg" xmlns:sodipodi="http://sodipodi.sourceforge.net/DTD/sodipodi-0.dtd" xmlns:inkscape="http://www.inkscape.org/namespaces/inkscape" version="1.1" x="0px" y="0px" viewBox="0 0 100 125"><g transform="translate(0,-952.36218)"><g transform="translate(2.8917323,955.35527)"><path d="m 9.1081178,14.00691 c 0,21.1692 0,41.601 0,60 28.7978202,0 57.0807802,0 81.9979002,0 0,-3.2917 0,-6.5833 0,-9.875 0.003,-0.062 0.003,-0.125 0,-0.1875 0,-16.6458 0,-33.2917 0,-49.9375 -28.46019,0 -57.60077,0 -81.9979002,0 z m 3.9998902,4 73.99811,0 0,40.3438 c -6.34714,-7.8513 -12.67856,-15.7154 -19.03076,-23.5626 -4.69528,6.0298 -9.3379,12.1006 -13.99964,18.1563 -7.62975,-8.3459 -15.40862,-16.556 -22.99942,-24.9375 -5.99048,6.8845 -11.97902,13.7707 -17.96829,20.6562 z m -9.9997403,4 c 0,19.3333 0,38.6667 0,58 26.6659903,0 53.3319703,0 79.9979503,0 l 0,-4 -75.9980502,0 0,-54 z m 57.9985203,1 c -3.28995,0 -5.99985,2.71 -5.99985,6 0,3.2901 2.7099,6 5.99985,6 3.28993,0 5.99984,-2.7099 5.99984,-6 0,-3.29 -2.70991,-6 -5.99984,-6 z" style="text-indent:0;text-transform:none;direction:ltr;block-progression:tb;baseline-shift:baseline;color:#000000;enable-background:accumulate;" fill="#000000" fill-opacity="1" stroke="none" marker="none" visibility="visible" display="inline" overflow="visible"/></g></g><text x="0" y="115" fill="#000000" font-size="5px" font-weight="bold" font-family="'Helvetica Neue', Helvetica, Arial-Unicode, Arial, Sans-serif">Created by AFY Studio</text><text x="0" y="120" fill="#000000" font-size="5px" font-weight="bold" font-family="'Helvetica Neue', Helvetica, Arial-Unicode, Arial, Sans-serif">from the Noun Project</text></svg>