<?xml version="1.0" encoding="utf-8"?>
<!-- Generator: Adobe Illustrator 16.0.0, SVG Export Plug-In . SVG Version: 6.00 Build 0)  -->
<!DOCTYPE svg PUBLIC "-//W3C//DTD SVG 1.1//EN" "http://www.w3.org/Graphics/SVG/1.1/DTD/svg11.dtd">
<svg version="1.1" id="Слой_1" xmlns="http://www.w3.org/2000/svg" xmlns:xlink="http://www.w3.org/1999/xlink" x="0px" y="0px"
	 width="1189.359px" height="939.244px" viewBox="0 228.757 1189.359 939.244" enable-background="new 0 228.757 1189.359 939.244"
	 xml:space="preserve">
<g>
	<path d="M1018.683,477.451c10.762,32.24,16.572,65.909,16.572,100.59c0,231.336-253.635,418.871-566.5,418.871
		c-29.739,0-58.932-1.715-87.434-4.977c85.612,63.933,204.382,103.53,335.651,103.53c260.875,0,472.387-156.367,472.387-349.296
		C1189.347,638.116,1122.951,541.527,1018.683,477.451z"/>
	<ellipse cx="471.398" cy="579.052" rx="471.398" ry="350.296"/>
	<path d="M205.929,766.695C174.154,847.296,92.351,939.539,63.29,958.016c-29.061,18.478-15.941,35.229,16.037,36.955
		c31.99,1.727,185.297-16.061,277.029-155.427C448.087,700.168,205.929,766.695,205.929,766.695z"/>
	<path d="M979.859,943.088c34.061,79.636,118.447,169.581,148.008,187.214c29.563,17.632,16.93,34.775-14.977,37.419
		c-31.93,2.631-185.701-10.787-281.338-147.545C735.927,883.453,979.859,943.088,979.859,943.088z"/>
</g>
</svg>
