<svg version="1.1" xmlns="http://www.w3.org/2000/svg" xmlns:xlink="http://www.w3.org/1999/xlink" x="0px" y="0px"
	 width="574.821px" height="1045.696px" viewBox="307.864 170.229 574.821 1045.696"
	 enable-background="new 307.864 170.229 574.821 1045.696" xml:space="preserve">
<g display="none">
	<path display="inline" d="M1130.261,481.749L857.875,584.41v-93.684c0-51.683-42.051-93.732-93.709-93.732H154.021
		c-51.658,0-93.72,42.05-93.72,93.732v404.691c0,51.693,42.062,93.731,93.72,93.731h610.144c51.658,0,93.709-42.038,93.709-93.731
		v-90.827l272.387,99.494V481.749L1130.261,481.749z M820.384,895.418c0,31.014-25.252,56.229-56.23,56.229H154.021
		c-31.002,0-56.229-25.204-56.229-56.229V490.726c0-31.015,25.216-56.242,56.229-56.242h610.144c30.979,0,56.23,25.216,56.23,56.242
		v404.691H820.384z M1092.771,850.498L859.816,765.41V623.711l232.955-87.768V850.498z"/>
</g>
<g>
	<path d="M821.527,170.229H369.011c-33.764,0-61.146,27.383-61.146,61.159v923.391c0,33.764,27.383,61.146,61.146,61.146h452.516
		c33.787,0,61.158-27.383,61.158-61.146V231.388C882.685,197.612,855.314,170.229,821.527,170.229z M514.758,213.042h161.035
		c4.488,0,8.166,3.655,8.166,8.155c0,4.513-3.678,8.167-8.166,8.167H514.758c-4.512,0-8.155-3.654-8.155-8.167
		C506.614,216.685,510.246,213.042,514.758,213.042z M595.287,1184.495c-21.085,0-38.157-17.084-38.157-38.146
		c0-21.084,17.084-38.181,38.157-38.181c21.06,0,38.144,17.097,38.144,38.181C633.431,1167.423,616.347,1184.495,595.287,1184.495z
		 M833.753,1036.557c0,22.513-18.25,40.752-40.764,40.752H397.549c-22.514,0-40.753-18.239-40.753-40.752V310.869
		c0-22.513,18.239-40.764,40.753-40.764h395.453c22.514,0,40.764,18.251,40.764,40.764v725.688H833.753z"/>
</g>
</svg>
