<?xml version="1.0" encoding="utf-8"?>
<!-- Generator: Adobe Illustrator 16.0.0, SVG Export Plug-In . SVG Version: 6.00 Build 0)  -->
<!DOCTYPE svg PUBLIC "-//W3C//DTD SVG 1.1//EN" "http://www.w3.org/Graphics/SVG/1.1/DTD/svg11.dtd">
<svg version="1.1" id="Слой_1" xmlns="http://www.w3.org/2000/svg" xmlns:xlink="http://www.w3.org/1999/xlink" x="0px" y="0px"
	 width="1166.739px" height="742.903px" viewBox="-937.094 1271.429 1166.739 742.903"
	 enable-background="new -937.094 1271.429 1166.739 742.903" xml:space="preserve">
<g>
	<path d="M-921.617,1325.005c-9.524,16.668-15.477,35.717-15.477,55.956v527.413c0,20.239,5.953,39.288,15.477,54.766
		l319.067-319.067L-921.617,1325.005z"/>
	<path d="M-238.241,1776.222c-30.954,30.954-72.624,47.622-115.483,47.622c-44.051,0-85.72-16.668-115.484-47.622l-92.862-92.862
		l-317.877,317.877c15.478,8.333,32.146,13.096,51.194,13.096h952.44c17.858,0,35.716-4.763,51.193-13.096l-317.877-317.877
		L-238.241,1776.222z"/>
	<path d="M214.167,1325.005l-319.067,319.067l319.067,319.067c9.524-15.478,15.477-34.526,15.477-54.765v-527.413
		C229.645,1359.53,223.692,1340.481,214.167,1325.005z"/>
	<path d="M-429.92,1735.744c20.24,20.24,48.813,30.954,76.196,30.954c27.382,0,54.765-10.715,76.195-30.954l451.219-451.219
		c-15.477-8.334-32.145-13.096-50.003-13.096h-952.44c-17.858,0-35.716,4.763-50.003,13.096L-429.92,1735.744z"/>
</g>
</svg>
