<?xml version="1.0" encoding="utf-8"?>
<!-- Generator: Adobe Illustrator 16.0.0, SVG Export Plug-In . SVG Version: 6.00 Build 0)  -->
<!DOCTYPE svg PUBLIC "-//W3C//DTD SVG 1.1//EN" "http://www.w3.org/Graphics/SVG/1.1/DTD/svg11.dtd">
<svg version="1.1" id="Слой_1" xmlns="http://www.w3.org/2000/svg" xmlns:xlink="http://www.w3.org/1999/xlink" x="0px" y="0px"
	 width="691.62px" height="697.68px" viewBox="249.503 344.276 691.62 697.68"
	 enable-background="new 249.503 344.276 691.62 697.68" xml:space="preserve">
<g display="none">
	<g display="inline">
		<rect y="97.797" fill="none" stroke="#000000" stroke-width="0.1" stroke-miterlimit="10" width="1190.55" height="1190.55"/>
		<line fill="none" stroke="#000000" stroke-width="0.1" stroke-miterlimit="10" x1="0" y1="1251.142" x2="1190.55" y2="1251.142"/>
		<line fill="none" stroke="#000000" stroke-width="0.1" stroke-miterlimit="10" x1="0" y1="1213.937" x2="1190.55" y2="1213.937"/>
		<line fill="none" stroke="#000000" stroke-width="0.1" stroke-miterlimit="10" x1="0" y1="1176.732" x2="1190.55" y2="1176.732"/>
		<line fill="none" stroke="#000000" stroke-width="0.1" stroke-miterlimit="10" x1="0" y1="1139.528" x2="1190.55" y2="1139.528"/>
		<line fill="none" stroke="#000000" stroke-width="0.1" stroke-miterlimit="10" x1="0" y1="1102.323" x2="1190.55" y2="1102.323"/>
		<line fill="none" stroke="#000000" stroke-width="0.1" stroke-miterlimit="10" x1="0" y1="1065.119" x2="1190.55" y2="1065.119"/>
		<line fill="none" stroke="#000000" stroke-width="0.1" stroke-miterlimit="10" x1="0" y1="1027.914" x2="1190.55" y2="1027.914"/>
		<line fill="none" stroke="#000000" stroke-width="0.1" stroke-miterlimit="10" x1="0" y1="990.709" x2="1190.55" y2="990.709"/>
		<line fill="none" stroke="#000000" stroke-width="0.1" stroke-miterlimit="10" x1="0" y1="953.505" x2="1190.55" y2="953.505"/>
		<line fill="none" stroke="#000000" stroke-width="0.1" stroke-miterlimit="10" x1="0" y1="916.3" x2="1190.55" y2="916.3"/>
		<line fill="none" stroke="#000000" stroke-width="0.1" stroke-miterlimit="10" x1="0" y1="879.095" x2="1190.55" y2="879.095"/>
		<line fill="none" stroke="#000000" stroke-width="0.1" stroke-miterlimit="10" x1="0" y1="841.89" x2="1190.55" y2="841.89"/>
		<line fill="none" stroke="#000000" stroke-width="0.1" stroke-miterlimit="10" x1="0" y1="804.685" x2="1190.55" y2="804.685"/>
		<line fill="none" stroke="#000000" stroke-width="0.1" stroke-miterlimit="10" x1="0" y1="767.481" x2="1190.55" y2="767.481"/>
		<line fill="none" stroke="#000000" stroke-width="0.1" stroke-miterlimit="10" x1="0" y1="730.276" x2="1190.55" y2="730.276"/>
		<line fill="none" stroke="#000000" stroke-width="0.1" stroke-miterlimit="10" x1="0" y1="693.072" x2="1190.55" y2="693.072"/>
		<line fill="none" stroke="#000000" stroke-width="0.1" stroke-miterlimit="10" x1="0" y1="655.867" x2="1190.55" y2="655.867"/>
		<line fill="none" stroke="#000000" stroke-width="0.1" stroke-miterlimit="10" x1="0" y1="618.662" x2="1190.55" y2="618.662"/>
		<line fill="none" stroke="#000000" stroke-width="0.1" stroke-miterlimit="10" x1="0" y1="581.458" x2="1190.55" y2="581.458"/>
		<line fill="none" stroke="#000000" stroke-width="0.1" stroke-miterlimit="10" x1="0" y1="544.253" x2="1190.55" y2="544.253"/>
		<line fill="none" stroke="#000000" stroke-width="0.1" stroke-miterlimit="10" x1="0" y1="507.049" x2="1190.55" y2="507.049"/>
		<line fill="none" stroke="#000000" stroke-width="0.1" stroke-miterlimit="10" x1="0" y1="469.844" x2="1190.55" y2="469.844"/>
		<line fill="none" stroke="#000000" stroke-width="0.1" stroke-miterlimit="10" x1="0" y1="432.638" x2="1190.55" y2="432.638"/>
		<line fill="none" stroke="#000000" stroke-width="0.1" stroke-miterlimit="10" x1="0" y1="395.434" x2="1190.55" y2="395.434"/>
		<line fill="none" stroke="#000000" stroke-width="0.1" stroke-miterlimit="10" x1="0" y1="358.229" x2="1190.55" y2="358.229"/>
		<line fill="none" stroke="#000000" stroke-width="0.1" stroke-miterlimit="10" x1="0" y1="321.024" x2="1190.55" y2="321.024"/>
		<line fill="none" stroke="#000000" stroke-width="0.1" stroke-miterlimit="10" x1="0" y1="283.82" x2="1190.55" y2="283.82"/>
		<line fill="none" stroke="#000000" stroke-width="0.1" stroke-miterlimit="10" x1="0" y1="246.615" x2="1190.55" y2="246.615"/>
		<line fill="none" stroke="#000000" stroke-width="0.1" stroke-miterlimit="10" x1="0" y1="209.411" x2="1190.55" y2="209.411"/>
		<line fill="none" stroke="#000000" stroke-width="0.1" stroke-miterlimit="10" x1="0" y1="172.206" x2="1190.55" y2="172.206"/>
		<line fill="none" stroke="#000000" stroke-width="0.1" stroke-miterlimit="10" x1="0" y1="135.002" x2="1190.55" y2="135.002"/>
		
			<line fill="none" stroke="#000000" stroke-width="0.1" stroke-miterlimit="10" x1="1153.345" y1="97.797" x2="1153.345" y2="1288.346"/>
		
			<line fill="none" stroke="#000000" stroke-width="0.1" stroke-miterlimit="10" x1="1116.14" y1="97.797" x2="1116.14" y2="1288.346"/>
		
			<line fill="none" stroke="#000000" stroke-width="0.1" stroke-miterlimit="10" x1="1078.935" y1="97.797" x2="1078.935" y2="1288.346"/>
		
			<line fill="none" stroke="#000000" stroke-width="0.1" stroke-miterlimit="10" x1="1041.732" y1="97.797" x2="1041.732" y2="1288.346"/>
		
			<line fill="none" stroke="#000000" stroke-width="0.1" stroke-miterlimit="10" x1="1004.527" y1="97.797" x2="1004.527" y2="1288.346"/>
		
			<line fill="none" stroke="#000000" stroke-width="0.1" stroke-miterlimit="10" x1="967.322" y1="97.797" x2="967.322" y2="1288.346"/>
		
			<line fill="none" stroke="#000000" stroke-width="0.1" stroke-miterlimit="10" x1="930.117" y1="97.797" x2="930.117" y2="1288.346"/>
		
			<line fill="none" stroke="#000000" stroke-width="0.1" stroke-miterlimit="10" x1="892.912" y1="97.797" x2="892.912" y2="1288.346"/>
		
			<line fill="none" stroke="#000000" stroke-width="0.1" stroke-miterlimit="10" x1="855.708" y1="97.797" x2="855.708" y2="1288.346"/>
		
			<line fill="none" stroke="#000000" stroke-width="0.1" stroke-miterlimit="10" x1="818.503" y1="97.797" x2="818.503" y2="1288.346"/>
		
			<line fill="none" stroke="#000000" stroke-width="0.1" stroke-miterlimit="10" x1="781.298" y1="97.797" x2="781.298" y2="1288.346"/>
		
			<line fill="none" stroke="#000000" stroke-width="0.1" stroke-miterlimit="10" x1="744.093" y1="97.797" x2="744.093" y2="1288.346"/>
		
			<line fill="none" stroke="#000000" stroke-width="0.1" stroke-miterlimit="10" x1="706.888" y1="97.797" x2="706.888" y2="1288.346"/>
		
			<line fill="none" stroke="#000000" stroke-width="0.1" stroke-miterlimit="10" x1="669.685" y1="97.797" x2="669.685" y2="1288.346"/>
		
			<line fill="none" stroke="#000000" stroke-width="0.1" stroke-miterlimit="10" x1="632.48" y1="97.797" x2="632.48" y2="1288.346"/>
		
			<line fill="none" stroke="#000000" stroke-width="0.1" stroke-miterlimit="10" x1="595.274" y1="97.797" x2="595.274" y2="1288.346"/>
		
			<line fill="none" stroke="#000000" stroke-width="0.1" stroke-miterlimit="10" x1="558.07" y1="97.797" x2="558.07" y2="1288.346"/>
		
			<line fill="none" stroke="#000000" stroke-width="0.1" stroke-miterlimit="10" x1="520.865" y1="97.797" x2="520.865" y2="1288.346"/>
		
			<line fill="none" stroke="#000000" stroke-width="0.1" stroke-miterlimit="10" x1="483.661" y1="97.797" x2="483.661" y2="1288.346"/>
		
			<line fill="none" stroke="#000000" stroke-width="0.1" stroke-miterlimit="10" x1="446.456" y1="97.797" x2="446.456" y2="1288.346"/>
		
			<line fill="none" stroke="#000000" stroke-width="0.1" stroke-miterlimit="10" x1="409.251" y1="97.797" x2="409.251" y2="1288.346"/>
		
			<line fill="none" stroke="#000000" stroke-width="0.1" stroke-miterlimit="10" x1="372.047" y1="97.797" x2="372.047" y2="1288.346"/>
		
			<line fill="none" stroke="#000000" stroke-width="0.1" stroke-miterlimit="10" x1="334.842" y1="97.797" x2="334.842" y2="1288.346"/>
		
			<line fill="none" stroke="#000000" stroke-width="0.1" stroke-miterlimit="10" x1="297.638" y1="97.797" x2="297.638" y2="1288.346"/>
		
			<line fill="none" stroke="#000000" stroke-width="0.1" stroke-miterlimit="10" x1="260.433" y1="97.797" x2="260.433" y2="1288.346"/>
		
			<line fill="none" stroke="#000000" stroke-width="0.1" stroke-miterlimit="10" x1="223.228" y1="97.797" x2="223.228" y2="1288.346"/>
		
			<line fill="none" stroke="#000000" stroke-width="0.1" stroke-miterlimit="10" x1="186.023" y1="97.797" x2="186.023" y2="1288.346"/>
		
			<line fill="none" stroke="#000000" stroke-width="0.1" stroke-miterlimit="10" x1="148.819" y1="97.797" x2="148.819" y2="1288.346"/>
		
			<line fill="none" stroke="#000000" stroke-width="0.1" stroke-miterlimit="10" x1="111.614" y1="97.797" x2="111.614" y2="1288.346"/>
		
			<line fill="none" stroke="#000000" stroke-width="0.1" stroke-miterlimit="10" x1="74.409" y1="97.797" x2="74.409" y2="1288.346"/>
		
			<line fill="none" stroke="#000000" stroke-width="0.1" stroke-miterlimit="10" x1="37.205" y1="97.797" x2="37.205" y2="1288.346"/>
	</g>
</g>
<g>
	<path d="M925.699,953.969L761.765,790.037c33.02-46.273,52.553-103.011,52.088-164.631
		c-0.465-154.633-126.729-280.896-281.361-281.129c-156.027-0.465-282.756,125.799-282.988,281.826
		c-0.232,150.446,125.101,279.268,275.547,282.756c60.69,1.395,117.195-16.51,163.701-47.669l165.793,165.794
		c20.23,20.229,53.018,19.997,73.016-0.931C946.394,1005.591,945.464,973.502,925.699,953.969z M336.702,625.871
		c0-107.661,87.198-195.092,195.092-195.092c107.661,0,195.092,87.198,195.092,195.092s-87.197,195.092-195.092,195.092
		C424.134,820.963,336.702,733.532,336.702,625.871z"/>
</g>
</svg>
