<?xml version="1.0" encoding="utf-8"?>
<!-- Generator: Adobe Illustrator 16.0.0, SVG Export Plug-In . SVG Version: 6.00 Build 0)  -->
<!DOCTYPE svg PUBLIC "-//W3C//DTD SVG 1.1//EN" "http://www.w3.org/Graphics/SVG/1.1/DTD/svg11.dtd">
<svg version="1.1" id="Слой_1" xmlns="http://www.w3.org/2000/svg" xmlns:xlink="http://www.w3.org/1999/xlink" x="0px" y="0px"
	 width="12.5px" height="11.948px" viewBox="1.75 1.696 12.5 11.948" enable-background="new 1.75 1.696 12.5 11.948"
	 xml:space="preserve">
<path d="M4.588,13.645h-2.68V5.583h2.68V13.645z M3.248,4.482H3.23c-0.899,0-1.48-0.619-1.48-1.393c0-0.79,0.599-1.393,1.516-1.393
	c0.917,0,1.48,0.603,1.498,1.393C4.764,3.863,4.182,4.482,3.248,4.482z M14.25,13.645h-2.68V9.332c0-1.083-0.389-1.823-1.357-1.823
	c-0.74,0-1.182,0.499-1.375,0.98C8.768,8.66,8.75,8.902,8.75,9.143v4.502H6.071c0,0,0.036-7.305,0-8.061H8.75v1.141
	c0.356-0.549,0.993-1.331,2.415-1.331c1.763,0,3.085,1.151,3.085,3.627V13.645z"/>
</svg>
