<?xml version="1.0" encoding="utf-8"?>
<!-- Generator: Adobe Illustrator 16.0.0, SVG Export Plug-In . SVG Version: 6.00 Build 0)  -->
<!DOCTYPE svg PUBLIC "-//W3C//DTD SVG 1.1//EN" "http://www.w3.org/Graphics/SVG/1.1/DTD/svg11.dtd">
<svg version="1.1" id="Слой_1" xmlns="http://www.w3.org/2000/svg" xmlns:xlink="http://www.w3.org/1999/xlink" x="0px" y="0px"
	 width="15px" height="15px" viewBox="0 0 15 15" enable-background="new 0 0 15 15" xml:space="preserve">
<g>
	<path d="M7.5,0C3.358,0,0,3.357,0,7.5S3.358,15,7.5,15c4.143,0,7.5-3.357,7.5-7.5C14.995,3.359,11.641,0.006,7.5,0z M5.254,1.197
		C4.673,1.992,4.249,2.891,4,3.844H1.856C2.669,2.613,3.863,1.684,5.254,1.197z M1.541,4.502h2.32
		C3.665,5.377,3.553,6.27,3.527,7.166h-2.71c0.044-0.927,0.281-1.834,0.696-2.664H1.541z M0.817,7.834h2.71
		c0.015,0.912,0.121,1.82,0.315,2.711H1.541C1.108,9.703,0.862,8.779,0.817,7.834z M1.931,11.213H4.01
		c0.243,0.938,0.662,1.818,1.235,2.6C3.89,13.322,2.729,12.412,1.931,11.213z M7.166,14.191l-0.613-0.055
		c-0.927-0.736-1.581-1.764-1.856-2.914h2.469V14.191L7.166,14.191z M7.166,10.555H4.539C4.326,9.666,4.211,8.758,4.195,7.844h2.971
		V10.555L7.166,10.555z M7.166,7.176H4.195c0.017-0.898,0.129-1.791,0.334-2.664h2.636L7.166,7.176L7.166,7.176z M7.166,3.844h-2.46
		c0.269-1.168,0.923-2.211,1.856-2.961c0.204,0,0.399-0.047,0.613-0.066L7.166,3.844z M14.184,7.176h-2.691
		c-0.031-0.9-0.149-1.797-0.354-2.674h2.293c0.437,0.825,0.691,1.732,0.752,2.664V7.176z M13.098,3.844h-2.08
		C10.771,2.895,10.35,2,9.773,1.207C11.137,1.706,12.301,2.631,13.098,3.844z M7.834,0.816c0.205,0,0.428,0,0.631,0.064
		c0.934,0.752,1.588,1.795,1.857,2.961H7.834V0.816z M7.834,4.529h2.654c0.203,0.875,0.313,1.768,0.335,2.664H7.834V4.529z
		 M7.834,7.861h2.989c-0.021,0.914-0.138,1.822-0.345,2.711H7.834V7.861z M8.465,14.155c-0.203,0-0.417,0.046-0.631,0.065v-3.008
		h2.46c-0.271,1.146-0.913,2.172-1.829,2.913V14.155z M9.773,13.83c0.565-0.779,0.98-1.658,1.227-2.59h2.068
		c-0.801,1.18-1.953,2.072-3.295,2.553V13.83z M13.486,10.582h-2.348c0.192-0.891,0.299-1.799,0.314-2.711h2.691
		c-0.039,0.93-0.272,1.842-0.688,2.674L13.486,10.582z"/>
</g>
</svg>
